<?xml version="1.0" encoding="UTF-8" standalone="no"?>
<!-- Created with Inkscape (http://www.inkscape.org/) -->
<svg
   xmlns:svg="http://www.w3.org/2000/svg"
   xmlns="http://www.w3.org/2000/svg"
   version="1.0"
   width="39.578957"
   height="9.9270039"
   id="svg2160">
  <defs
     id="defs2162" />
  <g
     id="L">
    <path
       d="M 7.372832,9.3291607 C 7.372832,9.3291607 7.840704,6.3162707 8.540036,3.4880607 C 9.239368,0.65985069 9.429412,0.72970279 10.368382,0.64883159 C 11.307353,0.56796029 11.433351,0.33148799 12.295918,3.1645757 C 13.158484,5.9976635 13.620423,9.3486717 13.620423,9.3486717 C 13.620423,9.3486717 13.983204,6.4174785 14.729042,3.5009617 C 15.474881,0.58444499 15.751666,0.66521999 16.752444,0.62850969 C 17.753224,0.59179949 17.846339,0.43250819 18.732158,3.3541207 C 19.617979,6.2757332 20.147055,9.3690547 20.147055,9.3690547 C 20.147055,9.3690547 20.348471,6.2730415 21.001238,3.415202 C 21.654006,0.55736249 21.948173,0.53755889 22.807681,0.63288639 C 23.667189,0.72821389 23.914852,0.68366199 24.637494,3.5457967 C 25.360137,6.4079315 25.648694,9.3862357 25.648694,9.3862357 C 25.648694,9.3862357 26.216813,6.5618304 26.962823,3.7339847 C 27.708833,0.90613889 28.094094,0.38419959 28.97963,0.51932709 C 29.865167,0.65445459 30.135145,0.75230409 30.950975,3.5850276 C 31.766804,6.4177511 31.896056,9.4057467 31.896056,9.4057467"
       id="path3488"
       style="fill:none;fill-rule:evenodd;stroke:#000000;stroke-width:1px;stroke-linecap:butt;stroke-linejoin:miter;stroke-opacity:1" />
    <path
       d="M -0.43375959,9.4270039 L 7.5,9.4270039"
       id="path2162"
       style="fill:none;fill-rule:evenodd;stroke:#000000;stroke-width:1px;stroke-linecap:butt;stroke-linejoin:miter;stroke-opacity:1" />
    <path
       d="M 31.5,9.4270039 L 39.5,9.4270039"
       id="path2164"
       style="fill:none;fill-rule:evenodd;stroke:#000000;stroke-width:1px;stroke-linecap:butt;stroke-linejoin:miter;stroke-opacity:1" />
  </g>
</svg>
