<?xml version="1.0" encoding="UTF-8" standalone="no"?>
<!-- Created with Inkscape (http://www.inkscape.org/) -->
<svg
   xmlns:svg="http://www.w3.org/2000/svg"
   xmlns="http://www.w3.org/2000/svg"
   version="1.0"
   width="40.776154"
   height="20"
   id="svg2160">
  <defs
     id="defs2162" />
  <g connects="0,20;40,20"
     id="S">
    <path
       d="M 14.823,17.426654 C 14.823,18.563832 14.108298,19.485697 13.226668,19.485697 C 12.345039,19.485697 11.630336,18.563832 11.630336,17.426654 C 11.630336,16.289476 12.345039,15.367611 13.226668,15.367611 C 14.108298,15.367611 14.823,16.289476 14.823,17.426654 L 14.823,17.426654 z"
       id="path3734"
       style="fill:#ffffff;fill-rule:evenodd;stroke:#000000;stroke-width:2px;stroke-linecap:butt;stroke-linejoin:miter;stroke-opacity:1" />
    <path
       d="M 28.726067,17.323298 C 28.726067,18.525458 27.989707,19.5 27.081361,19.5 C 26.173016,19.5 25.436656,18.525458 25.436656,17.323298 C 25.436656,16.121138 26.173016,15.146596 27.081361,15.146596 C 27.989707,15.146596 28.726067,16.121138 28.726067,17.323298 z"
       id="path3736"
       style="fill:#ffffff;fill-rule:evenodd;stroke:#000000;stroke-width:2px;stroke-linecap:butt;stroke-linejoin:miter;stroke-opacity:1" />
    <path
       d="M 12.138988,19.259646 L 0.49999997,19.25502"
       id="path3740"
       style="fill:none;fill-rule:evenodd;stroke:#000000;stroke-width:2px;stroke-linecap:butt;stroke-linejoin:miter;stroke-opacity:1" />
    <path
       d="M 27.816258,19.311537 L 40.276155,19.311537"
       id="path3742"
       style="fill:none;fill-rule:evenodd;stroke:#000000;stroke-width:2px;stroke-linecap:butt;stroke-linejoin:miter;stroke-opacity:1" />
    <path
       d="M 12.302377,10.596425 L 27.896333,10.596425"
       id="path3744"
       style="fill:none;fill-rule:evenodd;stroke:#000000;stroke-width:2px;stroke-linecap:butt;stroke-linejoin:miter;stroke-opacity:1" />
    <path
       d="M 19.822814,10.357704 L 19.726067,0.5"
       id="path3749"
       style="fill:none;fill-rule:evenodd;stroke:#000000;stroke-width:2px;stroke-linecap:butt;stroke-linejoin:miter;stroke-opacity:1" />
  </g>
</svg>
