<?xml version="1.0" encoding="UTF-8" standalone="no"?>
<!-- Created with Inkscape (http://www.inkscape.org/) -->
<svg
   xmlns:svg="http://www.w3.org/2000/svg"
   xmlns="http://www.w3.org/2000/svg"
   version="1.0"
   width="35.838135"
   height="20.000002"
   id="svg2160">
  <defs
     id="defs2162" />
  <g
     id="R">
    <path
       d="M 8.2476329,10.82876 L 9.8698241,5.5000001 L 11.36224,15.001885 L 13.82797,5.564202 L 15.839487,15.066088 L 18.045667,5.5000001 L 20.348866,15.136627 L 22.587802,5.564202 L 24.761226,15.088269 L 25.962585,10.388853"
       id="path3444"
       style="fill:none;fill-rule:evenodd;stroke:#000000;stroke-width:1px;stroke-linecap:butt;stroke-linejoin:miter;stroke-opacity:1" />
    <path
       d="M 0.41158319,10.456187 L 8.0510021,10.411584"
       id="path2159"
       style="fill:none;fill-rule:evenodd;stroke:#00000f;stroke-width:1px;stroke-linecap:butt;stroke-linejoin:miter;stroke-opacity:1" />
    <path
       d="M 35.426552,10.36698 L 25.546347,10.411584"
       id="path2161"
       style="fill:none;fill-rule:evenodd;stroke:#00000f;stroke-width:1px;stroke-linecap:butt;stroke-linejoin:miter;stroke-opacity:1" />
    <path
       d="M 24.999815,16.831763 L 11.747896,2.5768877"
       id="path2242"
       style="fill:none;fill-rule:evenodd;stroke:#000000;stroke-width:1px;stroke-linecap:butt;stroke-linejoin:miter;stroke-opacity:1" />
    <path
       d="M 12.603901,6.5785149 L 11.863404,2.6338108 L 15.962585,3.0034785"
       id="path2244"
       style="fill:none;fill-rule:evenodd;stroke:#000000;stroke-width:1px;stroke-linecap:butt;stroke-linejoin:miter;stroke-opacity:1" />
    <path
       d="M 34.567727,7.4504032 C 34.567727,14.310929 27.977734,19.872483 19.848566,19.872483 C 11.719398,19.872483 5.1294049,14.310929 5.129405,7.4504032 C 5.1294049,0.5898778 11.719398,-4.9716769 19.848566,-4.9716769 C 27.977734,-4.9716769 34.567727,0.5898778 34.567727,7.4504032 L 34.567727,7.4504032 z"
       transform="matrix(0.7473252,0,0,0.7647673,3.12925,4.3021759)"
       id="path2289"
       style="fill:none;fill-rule:evenodd;stroke:#000000;stroke-width:1;stroke-linecap:butt;stroke-linejoin:miter;stroke-opacity:1" />
    <path
       d="M 4.4625853,5.0000002 L 7.4625853,5.0000002 L 6.4625853,2.0000002"
       id="path3261"
       style="fill:none;fill-rule:evenodd;stroke:#000000;stroke-width:1px;stroke-linecap:butt;stroke-linejoin:miter;stroke-opacity:1" />
    <path
       d="M 1.1762416,0.84746709 L 7.1762416,4.7323791"
       id="path3265"
       style="fill:none;fill-rule:evenodd;stroke:#000000;stroke-width:1px;stroke-linecap:butt;stroke-linejoin:miter;stroke-opacity:1" />
  </g>
</svg>
