<?xml version="1.0" encoding="UTF-8" standalone="no"?>
<!-- Created with Inkscape (http://www.inkscape.org/) -->

<svg
   xmlns:svg="http://www.w3.org/2000/svg"
   xmlns="http://www.w3.org/2000/svg"
   version="1.0"
   width="61.022789"
   height="40.104813"
   id="svg2160">
  <defs
     id="defs2162" />
  <g connects="0,20;60,20"
     id="R">
    <path
       d="m 11.406524,18.410498 3.819574,-4.560383 4.471942,10.682183 3.810665,-10.363194 5.070138,10.173312 3.287417,-10.409232 4.682872,10.649472 3.059394,-10.243794 5.060847,10.535864 3.916121,-5.971522"
       id="path3444"
       style="fill:none;stroke:#000000;stroke-width:2px;stroke-linecap:butt;stroke-linejoin:miter;stroke-opacity:1" />
    <path
       d="M 0.16429048,19.64847 10.687274,19.615346"
       id="path2159"
       style="fill:none;stroke:#00000f;stroke-width:2px;stroke-linecap:butt;stroke-linejoin:miter;stroke-opacity:1" />
    <path
       d="m 61.369505,19.225906 -12.171381,0.03677"
       id="path2161"
       style="fill:none;stroke:#00000f;stroke-width:2px;stroke-linecap:butt;stroke-linejoin:miter;stroke-opacity:1" />
    <path
       d="M 42.795793,26.964401 19.751828,10.580821"
       id="path2242"
       style="fill:none;stroke:#000000;stroke-width:2px;stroke-linecap:butt;stroke-linejoin:miter;stroke-opacity:1" />
    <path
       d="m 20.011796,13.98641 -0.740497,-3.944704 4.099181,0.369668"
       id="path2244"
       style="fill:none;stroke:#000000;stroke-width:2px;stroke-linecap:butt;stroke-linejoin:miter;stroke-opacity:1" />
    <path
       d="m 48.724184,19.920574 c 0,10.686868 -8.342101,19.350285 -18.632607,19.350285 -10.290506,0 -18.632608,-8.663417 -18.632608,-19.350285 0,-10.6868674 8.342102,-19.35028542 18.632608,-19.35028542 10.290506,0 18.632607,8.66341802 18.632607,19.35028542 l 0,0 z"
       id="path2289"
       style="fill:none;stroke:#000000;stroke-width:2;stroke-linecap:butt;stroke-linejoin:miter;stroke-opacity:1" />
    <path
       d="m 11.700184,7.2138539 3,0 -1,-3"
       id="path3261"
       style="fill:none;stroke:#000000;stroke-width:2px;stroke-linecap:butt;stroke-linejoin:miter;stroke-opacity:1" />
    <path
       d="m 7.9880993,2.8058763 5.9999997,3.884912"
       id="path3265"
       style="fill:none;stroke:#000000;stroke-width:2px;stroke-linecap:butt;stroke-linejoin:miter;stroke-opacity:1" />
  </g>
</svg>
