<?xml version="1.0" encoding="UTF-8" standalone="no"?>
<!-- Created with Inkscape (http://www.inkscape.org/) -->
<svg
   xmlns:svg="http://www.w3.org/2000/svg"
   xmlns="http://www.w3.org/2000/svg"
   version="1.0"
   width="39.963234"
   height="20.37528"
   id="svg2160">
  <defs
     id="defs2162" />
  <g connects="0,10;20,20;40,10"
     id="L">
    <path
       d="M 0.45436359,9.6043046 L 7.108292,9.6245975 C 7.108292,9.6245975 7.7398379,6.2128146 8.4630649,3.3564781 C 9.1862918,0.50014154 9.3315806,0.88719921 10.302635,0.80552365 C 11.27369,0.72384819 11.455244,0.16851328 12.347283,3.029776 C 13.239323,5.8910388 13.56936,9.6443025 13.56936,9.6443025 C 13.56936,9.6443025 14.092224,6.3150289 14.863546,3.3695074 C 15.63487,0.42398593 15.921113,0.50556423 16.956087,0.46848885 C 17.991062,0.43141357 18.087359,0.27053812 19.003446,3.221206 C 19.919535,6.1718739 20.319004,9.6648882 20.319004,9.6648882 C 20.319004,9.6648882 20.879986,5.9159468 21.555058,3.0296861 C 22.23013,0.14342544 22.43185,0.62984221 23.320726,0.72611774 C 24.209603,0.82239327 24.36323,0.52418964 25.110565,3.4147882 C 25.8579,6.3053869 26.00863,9.6822401 26.00863,9.6822401 C 26.00863,9.6822401 26.948845,6.0810034 27.720346,3.2250347 C 28.491848,0.36906613 28.480276,0.72816641 29.39607,0.86463775 C 30.311865,1.0011091 30.539819,0.91002518 31.383525,3.7709201 C 32.227231,6.631815 32.46946,9.7019451 32.46946,9.7019451 L 39.508872,9.7234135"
       id="path3488"
       style="fill:none;fill-rule:evenodd;stroke:#000000;stroke-width:2px;stroke-linecap:butt;stroke-linejoin:miter;stroke-opacity:1" />
    <path
       d="M 20.366263,9.8292562 L 20.259249,19.87528"
       id="path3492"
       style="fill:none;fill-rule:evenodd;stroke:#000000;stroke-width:2px;stroke-linecap:butt;stroke-linejoin:miter;stroke-opacity:1" />
  </g>
</svg>
