<?xml version="1.0" encoding="UTF-8" standalone="no"?>
<!-- Created with Inkscape (http://www.inkscape.org/) -->
<svg
   xmlns="http://www.w3.org/2000/svg"
   version="1.0"
   width="40.33585"
   height="40.335129"
>

 <defs>
</defs>
  <g connects="0,10;0,30;20,40;40,10;40,30"
	stroke='black'
	stroke-width='2px' 
    id="T">
    <path
       d="M 0.33431039,9.703568 L 6.4540488,9.7238666 C 6.4540488,9.7238666 7.4526515,6.2126337 8.1699275,3.3554894 C 8.8872028,0.49834514 9.0312961,0.88551218 9.9943596,0.80381362 C 10.957423,0.72211495 11.137483,0.16662299 12.022182,3.028695 C 12.906881,5.8907669 13.43727,9.6241236 13.43727,9.6241236 C 13.43727,9.6241236 13.752763,6.314877 14.517739,3.3685224 C 15.282715,0.42216789 15.566602,0.50376927 16.59306,0.4666835 C 17.619518,0.42959763 17.715022,0.26867679 18.623572,3.2201792 C 19.532121,6.1716815 20.227257,9.7641688 20.227257,9.7641688 C 20.227257,9.7641688 20.484669,5.915682 21.154185,3.0286051 C 21.823702,0.14152815 22.023761,0.62808249 22.905324,0.72438525 C 23.786886,0.820688 23.939249,0.52239994 24.680434,3.4138161 C 25.421618,6.3052323 25.678289,9.6620719 25.678289,9.6620719 C 25.678289,9.6620719 26.503587,6.0807852 27.268739,3.2240089 C 28.033892,0.36723256 28.022415,0.7264345 28.930673,0.86294444 C 29.838932,0.99945437 30.06501,0.9083447 30.901773,3.7700487 C 31.738537,6.6317527 32.661274,9.8012361 32.661274,9.8012361 L 39.642758,9.8227106"
       id="path3488"
       fill='none' />
    <path
       d="M 0.63051683,29.717273 L 7.2487999,29.737581 C 7.2487999,29.737581 7.9618006,26.702875 8.6811533,23.844518 C 9.4005065,20.986162 9.5450162,21.373493 10.510869,21.29176 C 11.476722,21.210027 11.657303,20.654299 12.544563,23.517585 C 13.431825,26.380871 13.77142,29.398786 13.77142,29.398786 C 13.77142,29.398786 14.280156,26.805161 15.047347,23.857557 C 15.814538,20.909952 16.099248,20.991588 17.128677,20.954487 C 18.158108,20.917386 18.253889,20.756396 19.165069,23.709151 C 20.07625,26.661904 20.292576,29.060875 20.292576,29.060875 C 20.292576,29.060875 21.031556,26.405796 21.703011,23.517495 C 22.374467,20.629193 22.575106,21.115954 23.45922,21.212298 C 24.343335,21.308641 24.49614,21.010227 25.239471,23.90287 C 25.982803,26.795513 26.33638,29.795263 26.33638,29.795263 C 26.33638,29.795263 27.067903,26.57097 27.835272,23.712982 C 28.60264,20.854994 28.59113,21.214348 29.502018,21.350916 C 30.412907,21.487484 30.63964,21.396335 31.478826,24.259253 C 32.318013,27.122171 32.762599,29.45647 32.762599,29.45647 L 39.7643,29.477953"
       id="path3494"
       fill='none' />
    <path
       d="M 7.9027249,11.569712 L 31.111803,11.279338"
       id="path3496"
  />
    <path
       d="M 7.6776558,15.332865 L 31.30972,15.182033"
       id="path3498"
  />
    <path
       d="M 7.6703633,19.349985 L 31.898203,19.066632"
       id="path3500"
 />
    <path
       d="M 20.282759,28.868608 L 20.282144,39.835129"
       id="path3502"
 />
  </g>
</svg>
