<?xml version="1.0" encoding="UTF-8" standalone="no"?>
<!-- Created with Inkscape (http://www.inkscape.org/) -->

<svg
   xmlns="http://www.w3.org/2000/svg"
   version="1.0"
   width="40.235352"
   height="39.925488"
>
  <defs>
</defs>
  <g  connects="0,20;30,0;30,40"
	stroke='black'
	stroke-width='2px' 
     id="Q"
	flippable="true"
	>
	<rect id="rect2162" height="40" width="40" y="0" x="0" visibility="hidden" />
    <path
       d="m 15.271146,31.633176 0,-24.254396"
       id="path2178"
/>
    <path
       d="m 30.587966,8.0714286 0,-7.5714286"
       id="path2186"
 />
    <path
       d="m 30.581079,31.195586 0,8.285715"
       id="path2188"
 />
    <path
       d="m 19.804376,25.074652 10.624205,0.08568 0.119536,6.033534"
       id="path3564"
	fill='none'
 />
    <path
       d="m 20.008478,14.375915 10.642461,-0.08568 0,-6.6377981"
       id="path3566"
	fill='none'
 />
    <path
       d="m 14.685397,19.910211 -15.0520787,0"
       id="path3568"
/>
    <path
       d="m 19.877067,12.080459 c 0,0 0,0 0,0 z"
       id="path2398"
 />
    <path
       d="m 19.962744,21.847638 0,-4.712236"
       id="path2402"
 />
    <path
       d="m 19.79139,15.850247 0,-4.969266"
       id="path2404"
 />
    <path
       d="m 19.962744,23.132793 0.08568,5.226298"
       id="path2406"
 />
    <path
       d="m 23.260583,19.45086 7.069079,-0.08785 0.08568,5.826036"
       id="path2408"
	fill='none'
 />
    <path
       d="m 25.940531,17.992172 -3.684112,1.627863 3.855466,1.285156"
       id="path2416"
	fill='none'
/>
 <text id="text2823" fill='black' stroke-width="0px" font-style="normal" font-size="8.19031239px" y="18.113794" x="1.0786462" font-family="Bitstream Vera Sans" >G</text>
 <text id="text2827" fill='black' stroke-width="0px" font-style="normal" font-size="8.0008316px" y="7.4208322" x="32.072721" font-family="Bitstream Vera Sans" >D</text>
 <text id="text2831" fill='black' stroke-width="0px" font-style="normal" font-size="8.04845715px" y="39.414978" x="32.333487" font-family="Bitstream Vera Sans" >S</text>

  </g>
</svg>
