<?xml version="1.0" encoding="UTF-8" standalone="no"?>
<!-- Created with Inkscape (http://www.inkscape.org/) -->
<svg
   xmlns="http://www.w3.org/2000/svg"
   version="1.0"
   width="40.235352"
   height="39.925488"
>
 <defs>
</defs>
  <g connects="0,20;30,0;30,40"
	stroke='black'
	stroke-width='2px' 
     	id="Q"
	flippable="true"
	>
    <path
       d="M 36.976901,19.036987 C 36.976901,26.778191 30.227933,33.053678 21.90266,33.053678 C 13.577387,33.053678 6.8284181,26.778191 6.8284181,19.036987 C 6.8284181,11.295782 13.577387,5.0202949 21.90266,5.0202949 C 30.227933,5.0202949 36.976901,11.295782 36.976901,19.036987 L 36.976901,19.036987 z"
       id="path2170"
       fill='none'
 />
    <path
       d="M 15.271146,31.633176 L 15.271146,7.37878"
       id="path2178"
 />
    <path
       d="M 30.587966,8.0714286 L 30.587966,0.5"
       id="path2186"
 />
    <path
       d="M 30.581079,31.195586 L 30.581079,39.481301"
       id="path2188"
 />
    <path
       d="M 19.804376,25.074652 L 30.428581,25.160329 L 30.548117,31.193863"
       id="path3564"
	fill='none'
/>
    <path
       d="M 20.008478,14.375915 L 30.650939,14.290238 L 30.650939,7.6524399"
       id="path3566"
	fill='none'
/>
    <path
       d="M 15.364201,19.910211 L 6.398249,19.910211"
       id="path3568"
/>
    <path
       d="M 0.7066217,19.949171 L 6.6230085,19.949171"
       id="path4107"
/>
    <path
       d="M 19.877067,12.080459 C 19.877067,12.080459 19.877067,12.080459 19.877067,12.080459 z"
       id="path2398"
	fill='none'
/>
    <path
       d="M 19.962744,21.847638 L 19.962744,17.135402"
       id="path2402"
/>
    <path
       d="M 19.79139,15.850247 L 19.79139,10.880981"
       id="path2404"
/>
    <path
       d="M 19.962744,23.132793 L 20.048421,28.359091"
       id="path2406"
 />
    <path
       d="M 19.877067,19.620036 L 30.329662,19.363005 L 30.415339,25.189041"
       id="path2408"
	fill='none'
 />
    <path
       d="M 25.788781,17.820818 L 29.472893,19.448681 L 25.617427,20.733837"
       id="path2416"
	fill='none' 
/>
  </g>
</svg>
