<?xml version="1.0" encoding="UTF-8" standalone="no"?>
<!-- Created with Inkscape (http://www.inkscape.org/) -->
<svg
   xmlns="http://www.w3.org/2000/svg"
   version="1.0"
   width="40.028328"
   height="40.606297"
>
 <defs>
</defs>
  <g connects="0,20;30,0;30,40"
	stroke='black'
	stroke-width='2px' 
     	id="Q"
	flippable="true"
	>
    <path
       d="M 39.528327,19.711332 C 39.528327,27.422391 32.281724,33.673439 23.342588,33.673439 C 14.403451,33.673439 7.1568491,27.422391 7.1568492,19.711332 C 7.1568491,12.000274 14.403451,5.7492257 23.342588,5.7492257 C 32.281724,5.7492257 39.528327,12.000274 39.528327,19.711332 L 39.528327,19.711332 z"
       id="path2170"
	fill='none' />
    <path
       d="M 15.507593,31.530581 L 15.728279,8.4635117"
       id="path2178"
 />
    <path
       d="M 6.7582072,19.62019 L 15.286906,19.730534 L 30.046507,32.277381"
       id="path2180"
	fill='none'
/>
    <path
       d="M 16.111535,19.730533 L 30.728279,6.6063688"
       id="path2182"
 />
    <path
       d="M 18.721367,28.151173 L 16.429763,20.652704 L 24.479947,21.587676"
       id="path2184"
	fill='none'
/>
    <path
       d="M 30,6.500601 L 30,0"
       id="path2186"
 />
    <path
       d="M 29.976563,32.247914 L 29.976563,40.106297"
       id="path2188"
/>
    <path
       d="M 0,20 L 7.5260889,20"
       id="path4105"
/>
  </g>
</svg>
