<?xml version="1.0" encoding="UTF-8" standalone="no"?>
<!-- Created with Inkscape (http://www.inkscape.org/) -->
<svg
   xmlns:svg="http://www.w3.org/2000/svg"
   xmlns="http://www.w3.org/2000/svg"
   version="1.0"
   width="40.235352"
   height="39.925488"
   id="svg2160">
  <defs
     id="defs2162" />
  <g
     id="Q">
    <path
       d="M 36.976901,19.036987 C 36.976901,26.778191 30.227933,33.053678 21.90266,33.053678 C 13.577387,33.053678 6.8284181,26.778191 6.8284181,19.036987 C 6.8284181,11.295782 13.577387,5.0202949 21.90266,5.0202949 C 30.227933,5.0202949 36.976901,11.295782 36.976901,19.036987 L 36.976901,19.036987 z"
       id="path2170"
       style="fill:#ffffff;fill-rule:evenodd;stroke:#000000;stroke-width:0.84852141px;stroke-linecap:butt;stroke-linejoin:miter;stroke-opacity:1" />
    <path
       d="M 15.271146,31.633176 L 15.271146,7.37878"
       id="path2178"
       style="fill:none;fill-rule:evenodd;stroke:#000000;stroke-width:0.92834872px;stroke-linecap:butt;stroke-linejoin:miter;stroke-opacity:1" />
    <path
       d="M 30.587966,8.0714286 L 30.587966,0.5"
       id="path2186"
       style="fill:none;fill-rule:evenodd;stroke:#00000f;stroke-width:1px;stroke-linecap:butt;stroke-linejoin:miter;stroke-opacity:1" />
    <path
       d="M 30.581079,31.195586 L 30.581079,39.481301"
       id="path2188"
       style="fill:none;fill-rule:evenodd;stroke:#00000f;stroke-width:1px;stroke-linecap:butt;stroke-linejoin:miter;stroke-opacity:1" />
    <path
       d="M 15.606202,25.160329 L 30.428581,25.160329 L 30.548117,31.193863"
       id="path3564"
       style="fill:none;fill-rule:evenodd;stroke:#000000;stroke-width:0.80010068px;stroke-linecap:butt;stroke-linejoin:miter;stroke-opacity:1" />
    <path
       d="M 15.724627,14.290238 L 30.650939,14.290238 L 30.650939,7.6524399"
       id="path3566"
       style="fill:none;fill-rule:evenodd;stroke:#000000;stroke-width:0.83032721px;stroke-linecap:butt;stroke-linejoin:miter;stroke-opacity:1" />
    <path
       d="M 15.364201,19.910211 L 6.398249,19.910211"
       id="path3568"
       style="fill:none;fill-rule:evenodd;stroke:#000000;stroke-width:0.99999994px;stroke-linecap:butt;stroke-linejoin:miter;stroke-opacity:1" />
    <path
       d="M 10.59009,17.448178 L 7.0520064,19.806901 L 10.59009,22.283559"
       id="path3572"
       style="fill:none;fill-rule:evenodd;stroke:#000000;stroke-width:1px;stroke-linecap:butt;stroke-linejoin:miter;stroke-opacity:1" />
    <path
       d="M 0.7066217,19.949171 L 6.6230085,19.949171"
       id="path4107"
       style="fill:none;fill-rule:evenodd;stroke:#00000f;stroke-width:1px;stroke-linecap:butt;stroke-linejoin:miter;stroke-opacity:1" />
  </g>
</svg>
