<?xml version="1.0" encoding="UTF-8" standalone="no"?><!--Created by webtronics 0.1--><svg xmlns="http://www.w3.org/2000/svg"><text x="40" y="194" font-size="12"/><text x="10" y="110" font-size="12">ton=.639*(r1+r2)*c1</text><text x="10" y="122" font-size="12">toff=.639*r2*c1</text><text x="190" y="132" font-size="12">555</text><text x="120" y="50" font-size="12">basic astable</text><text x="310" y="200" font-size="12">c1</text><text x="310" y="150" font-size="12">r2</text><text x="310" y="90" font-size="12">r1</text><text x="60" y="170" font-size="12">out</text><line x1="90" y1="170" x2="180" y2="170" style="position: absolute;" stroke="black" stroke-width="2" id="line:ace02077-4210-89d2-7bc7-8028aad0c271"/><circle cx="290" cy="180" r="3" style="position: absolute;" stroke="black" id="shape:d094c9c8-45d4-fe44-9355-d60e68c3f3e4"/><line x1="260" y1="180" x2="290" y2="180" style="position: absolute;" stroke="black" stroke-width="2" id="line:159dcf67-b3db-f2af-5fa4-10a67832784c"/><circle cx="260" cy="180" r="3" style="position: absolute;" stroke="black" id="shape:534058c3-e237-0b4b-5611-1be9352ca6da"/><line x1="240" y1="160" x2="270" y2="160" style="position: absolute;" stroke="black" stroke-width="2" id="line:a4b0fe6e-7bf9-19ad-7656-d131bbc47c85"/><line x1="270" y1="120" x2="270" y2="160" style="position: absolute;" stroke="black" stroke-width="2" id="line:1b204140-acc1-6652-c105-2efbbe48842b"/><line x1="270" y1="120" x2="290" y2="120" style="position: absolute;" stroke="black" stroke-width="2" id="line:57009a27-a1ef-bd28-cf7a-4e1d81b74d01"/><circle cx="290" cy="120" r="3" style="position: absolute;" stroke="black" id="shape:3b313e8c-02c8-f5d0-2122-68b2286e666d"/><line x1="290" y1="160" x2="290" y2="200" style="position: absolute;" stroke="black" stroke-width="2" id="line:e3d82e13-ecb7-8624-39b8-5cc6a3a54366"/><circle cx="290" cy="240" r="3" style="position: absolute;" stroke="black" id="shape:d6515637-1462-94d5-fede-0442bdc666a6"/><line x1="290" y1="210" x2="290" y2="270" style="position: absolute;" stroke="black" stroke-width="2" id="line:0bb1f255-b4ed-dd23-0504-b1cd7fc7668c"/><g id="Gnd" transform="matrix(1, 0, 0, 1, 280, 260)">
    <path d="M 10.648082,0.5 L 10.648082,11.468059" id="path3694" style="fill: none; fill-rule: evenodd; stroke: rgb(0, 0, 0); stroke-width: 1px; stroke-linecap: butt; stroke-linejoin: miter; stroke-opacity: 1;"/>
    <path d="M 0.50000006,11.834153 L 19.671275,11.834153" id="path3696" style="fill: none; fill-rule: evenodd; stroke: rgb(0, 0, 0); stroke-width: 1px; stroke-linecap: butt; stroke-linejoin: miter; stroke-opacity: 1;"/>
    <path d="M 2.6480823,14.5 L 17.732881,14.5" id="path3698" style="fill: none; fill-rule: evenodd; stroke: rgb(0, 0, 0); stroke-width: 1px; stroke-linecap: butt; stroke-linejoin: miter; stroke-opacity: 1;"/>
    <path d="M 5.802873,17.5 L 14.648082,17.5" id="path3700" style="fill: none; fill-rule: evenodd; stroke: rgb(0, 0, 0); stroke-width: 1px; stroke-linecap: butt; stroke-linejoin: miter; stroke-opacity: 1;"/>
  </g><line x1="130" y1="240" x2="290" y2="240" style="position: absolute;" stroke="black" stroke-width="2" id="line:b2c1d798-955c-8313-7341-9ff35ac92dc2"/><line x1="130" y1="150" x2="130" y2="240" style="position: absolute;" stroke="black" stroke-width="2" id="line:01ceed76-ebcb-15ea-5246-3c6c349c2613"/><line x1="130" y1="150" x2="180" y2="150" style="position: absolute;" stroke="black" stroke-width="2" id="line:7c1a5117-4c68-5fc2-38e0-c4ae58524301"/><line x1="240" y1="170" x2="260" y2="170" style="position: absolute;" stroke="black" stroke-width="2" id="line:217e4a28-b793-a1f1-802b-e42e84d9590c"/><line x1="260" y1="170" x2="260" y2="210" style="position: absolute;" stroke="black" stroke-width="2" id="line:0bab6f6d-0d1a-db73-5767-9af92454fd3a"/><line x1="170" y1="210" x2="260" y2="210" style="position: absolute;" stroke="black" stroke-width="2" id="line:227baafb-bb7a-a3db-6d74-e1dd9d860ef3"/><line x1="170" y1="160" x2="170" y2="210" style="position: absolute;" stroke="black" stroke-width="2" id="line:2f4166f0-d241-43d7-be2f-9731ec2f9441"/><line x1="170" y1="160" x2="180" y2="160" style="position: absolute;" stroke="black" stroke-width="2" id="line:d53ef570-436a-0b3d-0c65-50ac0134fe93"/><circle cx="250" cy="80" r="3" style="position: absolute;" stroke="black" id="shape:a31a53a2-b334-2e7c-361c-ac87894796dc"/><line x1="150" y1="80" x2="250" y2="80" style="position: absolute;" stroke="black" stroke-width="2" id="line:67e22a7a-733f-4c02-396e-d41c11f15391"/><line x1="150" y1="80" x2="150" y2="180" style="position: absolute;" stroke="black" stroke-width="2" id="line:90591694-e40e-fd56-4557-229e1a6f6d95"/><line x1="150" y1="180" x2="180" y2="180" style="position: absolute;" stroke="black" stroke-width="2" id="line:cfccd3e2-c74e-da39-71a7-5603e1775ee7"/><g id="C" transform="matrix(0, 1, -1, 0, 300, 190)">
    <path d="M 10.369779,0.65035363 L 10.251843,20.149993" id="path3412" style="fill: none; fill-rule: evenodd; stroke: rgb(0, 0, 0); stroke-width: 1px; stroke-linecap: butt; stroke-linejoin: miter; stroke-opacity: 1;"/>
    <path d="M 15.5,0.5 L 15.5,19.99964" id="path3414" style="fill: none; fill-rule: evenodd; stroke: rgb(0, 0, 0); stroke-width: 1px; stroke-linecap: butt; stroke-linejoin: miter; stroke-opacity: 1;"/>
    <path d="M 15.500001,9.9247403 L 26.500002,9.9996396" id="path3420" style="fill: none; fill-rule: evenodd; stroke: rgb(0, 0, 0); stroke-width: 1px; stroke-linecap: butt; stroke-linejoin: miter; stroke-opacity: 1;"/>
    <path d="M 9.8980368,9.9996389 L 0.5,10.107676" id="path3422" style="fill: none; fill-rule: evenodd; stroke: rgb(0, 0, 0); stroke-width: 1px; stroke-linecap: butt; stroke-linejoin: miter; stroke-opacity: 1;"/>
  </g><line x1="290" y1="100" x2="290" y2="130" style="position: absolute;" stroke="black" stroke-width="2" id="line:b0b5c8b1-58f9-2c8f-6b68-d375170746c7"/><circle cx="290" cy="60" r="3" style="position: absolute;" stroke="black" id="shape:044465e1-cbb8-3235-b18d-a70b2b826cd9"/><line x1="290" y1="50" x2="290" y2="70" style="position: absolute;" stroke="black" stroke-width="2" id="line:31610895-a912-3372-1074-6a8611594e6f"/><line x1="250" y1="60" x2="290" y2="60" style="position: absolute;" stroke="black" stroke-width="2" id="line:2602c8fb-72b2-ad41-c49d-93a2f7eb3e25"/><line x1="250" y1="60" x2="250" y2="150" style="position: absolute;" stroke="black" stroke-width="2" id="line:c1432c98-fec8-a9b3-99e3-8a76ef36fd5c"/><line x1="240" y1="150" x2="250" y2="150" style="position: absolute;" stroke="black" stroke-width="2" id="line:1ec6d101-6245-cdde-87cd-b4dd03213c94"/><g id="V" transform="matrix(1, 0, 0, 1, 280, 30)">
    <rect width="20" height="20" rx="0" ry="0" x="0" y="0" id="rect2162" style="fill: none; fill-opacity: 1; stroke: none; stroke-width: 0.6; stroke-miterlimit: 4; stroke-dasharray: none; stroke-opacity: 1;"/>
    <path d="M 9.8453557,0.75155132 L 9.7889861,20.02609" id="path3694" style="fill: none; fill-rule: evenodd; stroke: rgb(0, 0, 0); stroke-width: 0.96247px; stroke-linecap: butt; stroke-linejoin: miter; stroke-opacity: 1;"/>
    <path d="M 6.8984095,6.0400567 L 9.776679,0.65836743 L 13.116155,5.9214675" id="path5089" style="fill: none; fill-rule: evenodd; stroke: rgb(0, 0, 0); stroke-width: 0.978517px; stroke-linecap: butt; stroke-linejoin: miter; stroke-opacity: 1;"/>
    <text x="11.2168" y="11.5234" id="text5095" xml:space="preserve" style="font-size: 12px; font-style: normal; font-weight: normal; fill: rgb(0, 0, 0); fill-opacity: 1; stroke: none; stroke-width: 1px; stroke-linecap: butt; stroke-linejoin: miter; stroke-opacity: 1; font-family: Bitstream Vera Sans;"><tspan x="11.2168" y="11.5234" id="tspan5097">+</tspan></text>
  </g><g id="R" transform="matrix(0, 1, -1, 0, 300, 130)">
    <path d="M 5.2980198,11.083892 L 7.5499171,0.49999994 L 9.6216626,19.372482 L 13.044546,0.62751664 L 15.836899,19.5 L 18.899479,0.49999994 L 22.096739,19.640104 L 25.204791,0.62751664 L 28.2219,19.544056 L 29.889606,10.210156" id="path3444" style="fill: none; fill-rule: evenodd; stroke: rgb(0, 0, 0); stroke-width: 1px; stroke-linecap: butt; stroke-linejoin: miter; stroke-opacity: 1;"/>
    <path d="M 0.41158316,10.588417 L 5.4688036,10.588417" id="path2159" style="fill: none; fill-rule: evenodd; stroke: rgb(0, 0, 15); stroke-width: 0.823166px; stroke-linecap: butt; stroke-linejoin: miter; stroke-opacity: 1;"/>
    <path d="M 35.349502,10.588417 L 29.890396,10.588417" id="path2161" style="fill: none; fill-rule: evenodd; stroke: rgb(0, 0, 15); stroke-width: 0.823166px; stroke-linecap: butt; stroke-linejoin: miter; stroke-opacity: 1;"/>
  </g><g id="R" transform="matrix(0, 1, -1, 0, 300, 70)">
    <path d="M 5.2980198,11.083892 L 7.5499171,0.49999994 L 9.6216626,19.372482 L 13.044546,0.62751664 L 15.836899,19.5 L 18.899479,0.49999994 L 22.096739,19.640104 L 25.204791,0.62751664 L 28.2219,19.544056 L 29.889606,10.210156" id="path3444" style="fill: none; fill-rule: evenodd; stroke: rgb(0, 0, 0); stroke-width: 1px; stroke-linecap: butt; stroke-linejoin: miter; stroke-opacity: 1;"/>
    <path d="M 0.41158316,10.588417 L 5.4688036,10.588417" id="path2159" style="fill: none; fill-rule: evenodd; stroke: rgb(0, 0, 15); stroke-width: 0.823166px; stroke-linecap: butt; stroke-linejoin: miter; stroke-opacity: 1;"/>
    <path d="M 35.349502,10.588417 L 29.890396,10.588417" id="path2161" style="fill: none; fill-rule: evenodd; stroke: rgb(0, 0, 15); stroke-width: 0.823166px; stroke-linecap: butt; stroke-linejoin: miter; stroke-opacity: 1;"/>
  </g><g transform="matrix(1, 0, 0, 1, 180, 140)"><rect x="10" y="0" width="40" height="50" style="fill: white; stroke: rgb(0, 0, 0); stroke-width: 2px;"/><line x1="0" y1="10" x2="10" y2="10" stroke="black" stroke-width="2"/><line x1="50" y1="10" x2="60" y2="10" stroke="black" stroke-width="2"/><line x1="0" y1="20" x2="10" y2="20" stroke="black" stroke-width="2"/><line x1="50" y1="20" x2="60" y2="20" stroke="black" stroke-width="2"/><line x1="0" y1="30" x2="10" y2="30" stroke="black" stroke-width="2"/><line x1="50" y1="30" x2="60" y2="30" stroke="black" stroke-width="2"/><line x1="0" y1="40" x2="10" y2="40" stroke="black" stroke-width="2"/><line x1="50" y1="40" x2="60" y2="40" stroke="black" stroke-width="2"/><circle cx="20" cy="10" r="3" stroke="black" id="shape:64b24059-6111-4f40-822e-1c8957c7a9ba"/></g><text x="300" y="40" font-size="12">5-15v</text></svg>