<?xml version="1.0" encoding="UTF-8" standalone="no"?><!--Created by webtronics 0.1--><svg xmlns="http://www.w3.org/2000/svg"><text x="370" y="152" font-size="12"/><text x="370" y="164" font-size="12"/><text x="170" y="192" font-size="12"/><text x="170" y="204" font-size="12"/><text x="310" y="282" font-size="12"/><text x="310" y="294" font-size="12"/><text x="370" y="242" font-size="12"/><text x="370" y="254" font-size="12"/><text x="360" y="262" font-size="12"/><text x="360" y="274" font-size="12"/><text x="360" y="202" font-size="12"/><text x="360" y="214" font-size="12"/><text x="230" y="212" font-size="12"/><text x="230" y="224" font-size="12"/><text x="170" y="180" font-size="12">out</text><text x="40" y="120" font-size="12">in</text><line x1="100" y1="180" x2="160" y2="180" style="position: absolute;" stroke="black" stroke-width="2" id="line:4ea07461-ff98-0288-d350-347029d62861"/><line x1="100" y1="130" x2="100" y2="180" style="position: absolute;" stroke="black" stroke-width="2" id="line:409d3177-6753-dfe1-8cde-1b6b17baf56b"/><line x1="100" y1="130" x2="140" y2="130" style="position: absolute;" stroke="black" stroke-width="2" id="line:f9d75cc9-4850-4576-5334-9a55ecf128fc"/><g transform="matrix(1, 0, 0, 1, 140, 100)"><rect x="10" y="0" width="40" height="50" style="fill: white; stroke: rgb(0, 0, 0); stroke-width: 2px;"/><line x1="0" y1="10" x2="10" y2="10" stroke="black" stroke-width="2"/><line x1="50" y1="10" x2="60" y2="10" stroke="black" stroke-width="2"/><line x1="0" y1="20" x2="10" y2="20" stroke="black" stroke-width="2"/><line x1="50" y1="20" x2="60" y2="20" stroke="black" stroke-width="2"/><line x1="0" y1="30" x2="10" y2="30" stroke="black" stroke-width="2"/><line x1="50" y1="30" x2="60" y2="30" stroke="black" stroke-width="2"/><line x1="0" y1="40" x2="10" y2="40" stroke="black" stroke-width="2"/><line x1="50" y1="40" x2="60" y2="40" stroke="black" stroke-width="2"/><circle cx="20" cy="10" r="3" stroke="black" id="shape:c177bc2d-7bc0-423e-f352-98406636b9ca"/></g><g id="R" transform="matrix(0, 1, -1, 0, 280, 60)">
    <path d="M 5.2980198,11.083892 L 7.5499171,0.49999994 L 9.6216626,19.372482 L 13.044546,0.62751664 L 15.836899,19.5 L 18.899479,0.49999994 L 22.096739,19.640104 L 25.204791,0.62751664 L 28.2219,19.544056 L 29.889606,10.210156" id="path3444" style="fill: none; fill-rule: evenodd; stroke: rgb(0, 0, 0); stroke-width: 1px; stroke-linecap: butt; stroke-linejoin: miter; stroke-opacity: 1;"/>
    <path d="M 0.41158316,10.588417 L 5.4688036,10.588417" id="path2159" style="fill: none; fill-rule: evenodd; stroke: rgb(0, 0, 15); stroke-width: 0.823166px; stroke-linecap: butt; stroke-linejoin: miter; stroke-opacity: 1;"/>
    <path d="M 35.349502,10.588417 L 29.890396,10.588417" id="path2161" style="fill: none; fill-rule: evenodd; stroke: rgb(0, 0, 15); stroke-width: 0.823166px; stroke-linecap: butt; stroke-linejoin: miter; stroke-opacity: 1;"/>
  </g><g id="C" transform="matrix(0, 1, -1, 0, 280, 130)">
    <path d="M 10.369779,0.65035363 L 10.251843,20.149993" id="path3412" style="fill: none; fill-rule: evenodd; stroke: rgb(0, 0, 0); stroke-width: 1px; stroke-linecap: butt; stroke-linejoin: miter; stroke-opacity: 1;"/>
    <path d="M 15.5,0.5 L 15.5,19.99964" id="path3414" style="fill: none; fill-rule: evenodd; stroke: rgb(0, 0, 0); stroke-width: 1px; stroke-linecap: butt; stroke-linejoin: miter; stroke-opacity: 1;"/>
    <path d="M 15.500001,9.9247403 L 26.500002,9.9996396" id="path3420" style="fill: none; fill-rule: evenodd; stroke: rgb(0, 0, 0); stroke-width: 1px; stroke-linecap: butt; stroke-linejoin: miter; stroke-opacity: 1;"/>
    <path d="M 9.8980368,9.9996389 L 0.5,10.107676" id="path3422" style="fill: none; fill-rule: evenodd; stroke: rgb(0, 0, 0); stroke-width: 1px; stroke-linecap: butt; stroke-linejoin: miter; stroke-opacity: 1;"/>
  </g><line x1="270" y1="90" x2="270" y2="130" style="position: absolute;" stroke="black" stroke-width="2" id="line:de8f6f83-f2fc-b1b9-d6ca-15f59c092686"/><g id="Gnd" transform="matrix(1, 0, 0, 1, 260, 180)">
    <path d="M 10.648082,0.5 L 10.648082,11.468059" id="path3694" style="fill: none; fill-rule: evenodd; stroke: rgb(0, 0, 0); stroke-width: 1px; stroke-linecap: butt; stroke-linejoin: miter; stroke-opacity: 1;"/>
    <path d="M 0.50000006,11.834153 L 19.671275,11.834153" id="path3696" style="fill: none; fill-rule: evenodd; stroke: rgb(0, 0, 0); stroke-width: 1px; stroke-linecap: butt; stroke-linejoin: miter; stroke-opacity: 1;"/>
    <path d="M 2.6480823,14.5 L 17.732881,14.5" id="path3698" style="fill: none; fill-rule: evenodd; stroke: rgb(0, 0, 0); stroke-width: 1px; stroke-linecap: butt; stroke-linejoin: miter; stroke-opacity: 1;"/>
    <path d="M 5.802873,17.5 L 14.648082,17.5" id="path3700" style="fill: none; fill-rule: evenodd; stroke: rgb(0, 0, 0); stroke-width: 1px; stroke-linecap: butt; stroke-linejoin: miter; stroke-opacity: 1;"/>
  </g><line x1="270" y1="150" x2="270" y2="190" style="position: absolute;" stroke="black" stroke-width="2" id="line:8ef13ce4-326c-fe38-53bb-6de0e4311713"/><line x1="200" y1="120" x2="270" y2="120" style="position: absolute;" stroke="black" stroke-width="2" id="line:f0d31932-88cb-73a3-fc32-53567e7214d0"/><circle cx="270" cy="120" r="3" style="position: absolute;" stroke="black" id="shape:a4af879e-94ac-4c2e-0225-e503f0367584"/><line x1="200" y1="130" x2="230" y2="130" style="position: absolute;" stroke="black" stroke-width="2" id="line:e8d5e50f-cad8-9749-f818-b84c73c01316"/><line x1="230" y1="120" x2="230" y2="130" style="position: absolute;" stroke="black" stroke-width="2" id="line:04a5cea1-d097-4556-d072-54b6c8ccc984"/><circle cx="230" cy="120" r="3" style="position: absolute;" stroke="black" id="shape:11a48796-43ca-96cd-3e76-beb63efbb2b9"/><g id="C" transform="matrix(0, 1, -1, 0, 230, 140)">
    <path d="M 10.369779,0.65035363 L 10.251843,20.149993" id="path3412" style="fill: none; fill-rule: evenodd; stroke: rgb(0, 0, 0); stroke-width: 1px; stroke-linecap: butt; stroke-linejoin: miter; stroke-opacity: 1;"/>
    <path d="M 15.5,0.5 L 15.5,19.99964" id="path3414" style="fill: none; fill-rule: evenodd; stroke: rgb(0, 0, 0); stroke-width: 1px; stroke-linecap: butt; stroke-linejoin: miter; stroke-opacity: 1;"/>
    <path d="M 15.500001,9.9247403 L 26.500002,9.9996396" id="path3420" style="fill: none; fill-rule: evenodd; stroke: rgb(0, 0, 0); stroke-width: 1px; stroke-linecap: butt; stroke-linejoin: miter; stroke-opacity: 1;"/>
    <path d="M 9.8980368,9.9996389 L 0.5,10.107676" id="path3422" style="fill: none; fill-rule: evenodd; stroke: rgb(0, 0, 0); stroke-width: 1px; stroke-linecap: butt; stroke-linejoin: miter; stroke-opacity: 1;"/>
  </g><line x1="200" y1="140" x2="220" y2="140" style="position: absolute;" stroke="black" stroke-width="2" id="line:6ce3575b-aba5-0603-699f-b1cde0d7d8c0"/><line x1="220" y1="170" x2="270" y2="170" style="position: absolute;" stroke="black" stroke-width="2" id="line:4dfaa47b-bedc-2dce-cedd-c9b926e68ec0"/><circle cx="270" cy="170" r="3" style="position: absolute;" stroke="black" id="shape:a2189b14-e521-487b-4fe1-b0265b50eba3"/><line x1="220" y1="160" x2="220" y2="170" style="position: absolute;" stroke="black" stroke-width="2" id="line:bff17c11-daf8-95e7-f77f-7eebd01b24fa"/><text x="150" y="90" font-size="12">555</text><text x="290" y="80" font-size="12">r1</text><text x="290" y="150" font-size="12">c1</text><line x1="60" y1="120" x2="150" y2="120" style="position: absolute;" stroke="black" stroke-width="2" id="line:2aeb2452-6347-8499-dddb-e93c5fb52488"/><text x="290" y="120" font-size="12">t=r1*c1</text><text x="230" y="160" font-size="12">.01uf</text><text x="90" y="70" font-size="12">basic monostable circuit</text><line x1="200" y1="110" x2="240" y2="110" style="position: absolute;" stroke="black" stroke-width="2" id="line:a651705a-c81a-ddce-b273-250123aeeb0f"/><line x1="240" y1="50" x2="240" y2="110" style="position: absolute;" stroke="black" stroke-width="2" id="line:9074ba48-012a-73ee-867f-682dd67150cb"/><line x1="240" y1="50" x2="270" y2="50" style="position: absolute;" stroke="black" stroke-width="2" id="line:78918794-0af6-37eb-60b3-c8541393c972"/><line x1="270" y1="30" x2="270" y2="60" style="position: absolute;" stroke="black" stroke-width="2" id="line:8c951287-3ccb-ebbc-3c8a-e7dcee22eaf7"/><circle cx="270" cy="50" r="3" style="position: absolute;" stroke="black" id="shape:ac071cc8-8cd7-f632-aec7-786e08709ee7"/><g id="V" transform="matrix(1, 0, 0, 1, 260, 20)">
    <rect width="20" height="20" rx="0" ry="0" x="0" y="0" id="rect2162" style="fill: none; fill-opacity: 1; stroke: none; stroke-width: 0.6; stroke-miterlimit: 4; stroke-dasharray: none; stroke-opacity: 1;"/>
    <path d="M 9.8453557,0.75155132 L 9.7889861,20.02609" id="path3694" style="fill: none; fill-rule: evenodd; stroke: rgb(0, 0, 0); stroke-width: 0.96247px; stroke-linecap: butt; stroke-linejoin: miter; stroke-opacity: 1;"/>
    <path d="M 6.8984095,6.0400567 L 9.776679,0.65836743 L 13.116155,5.9214675" id="path5089" style="fill: none; fill-rule: evenodd; stroke: rgb(0, 0, 0); stroke-width: 0.978517px; stroke-linecap: butt; stroke-linejoin: miter; stroke-opacity: 1;"/>
    <text x="11.2168" y="11.5234" id="text5095" xml:space="preserve" style="font-size: 12px; font-style: normal; font-weight: normal; fill: rgb(0, 0, 0); fill-opacity: 1; stroke: none; stroke-width: 1px; stroke-linecap: butt; stroke-linejoin: miter; stroke-opacity: 1; font-family: Bitstream Vera Sans;"><tspan x="11.2168" y="11.5234" id="tspan5097">+</tspan></text>
  </g><text x="290" y="30" font-size="12">5-15v</text></svg>