<?xml version="1.0" encoding="UTF-8" standalone="no"?><!--Created by webtronics 0.1--><svg xmlns="http://www.w3.org/2000/svg">

<g transform="matrix(1, 0, 0, 1, 260, 240)"><rect x="10" y="10" width="60" height="60" style="fill: white; stroke: rgb(0, 0, 0); stroke-width: 2px;"/><line x1="20" y1="0" x2="20" y2="10" stroke="black" stroke-width="2"/><line x1="20" y1="70" x2="20" y2="80" stroke="black" stroke-width="2"/><line x1="30" y1="0" x2="30" y2="10" stroke="black" stroke-width="2"/><line x1="30" y1="70" x2="30" y2="80" stroke="black" stroke-width="2"/><line x1="40" y1="0" x2="40" y2="10" stroke="black" stroke-width="2"/><line x1="40" y1="70" x2="40" y2="80" stroke="black" stroke-width="2"/><line x1="50" y1="0" x2="50" y2="10" stroke="black" stroke-width="2"/><line x1="50" y1="70" x2="50" y2="80" stroke="black" stroke-width="2"/><line x1="60" y1="0" x2="60" y2="10" stroke="black" stroke-width="2"/><line x1="60" y1="70" x2="60" y2="80" stroke="black" stroke-width="2"/><line x1="0" y1="20" x2="10" y2="20" stroke="black" stroke-width="2"/><line x1="70" y1="20" x2="80" y2="20" stroke="black" stroke-width="2"/><line x1="0" y1="30" x2="10" y2="30" stroke="black" stroke-width="2"/><line x1="70" y1="30" x2="80" y2="30" stroke="black" stroke-width="2"/><line x1="0" y1="40" x2="10" y2="40" stroke="black" stroke-width="2"/><line x1="70" y1="40" x2="80" y2="40" stroke="black" stroke-width="2"/><line x1="0" y1="50" x2="10" y2="50" stroke="black" stroke-width="2"/><line x1="70" y1="50" x2="80" y2="50" stroke="black" stroke-width="2"/><line x1="0" y1="60" x2="10" y2="60" stroke="black" stroke-width="2"/><line x1="70" y1="60" x2="80" y2="60" stroke="black" stroke-width="2"/><circle cx="20" cy="20" r="3" stroke="black" id="shape:60c5be6e-e3a4-1f9d-e225-cb5b32638ed6"/></g></svg>