<?xml version="1.0" encoding="UTF-8" standalone="no"?><!--Created by webtronics 0.1--><svg xmlns="http://www.w3.org/2000/svg"><g id="R" transform="matrix(0, 1, -1, 0, 290, 250)">
    <path d="M 5.2980198,11.083892 L 7.5499171,0.49999994 L 9.6216626,19.372482 L 13.044546,0.62751664 L 15.836899,19.5 L 18.899479,0.49999994 L 22.096739,19.640104 L 25.204791,0.62751664 L 28.2219,19.544056 L 29.889606,10.210156" id="path3444" style="fill: none; fill-rule: evenodd; stroke: rgb(0, 0, 0); stroke-width: 1px; stroke-linecap: butt; stroke-linejoin: miter; stroke-opacity: 1;"/>
    <path d="M 0.41158316,10.588417 L 5.4688036,10.588417" id="path2159" style="fill: none; fill-rule: evenodd; stroke: rgb(0, 0, 15); stroke-width: 0.823166px; stroke-linecap: butt; stroke-linejoin: miter; stroke-opacity: 1;"/>
    <path d="M 35.349502,10.588417 L 29.890396,10.588417" id="path2161" style="fill: none; fill-rule: evenodd; stroke: rgb(0, 0, 15); stroke-width: 0.823166px; stroke-linecap: butt; stroke-linejoin: miter; stroke-opacity: 1;"/>
  </g><g id="R" transform="matrix(0, 1, -1, 0, 290, 190)">
    <path d="M 5.2980198,11.083892 L 7.5499171,0.49999994 L 9.6216626,19.372482 L 13.044546,0.62751664 L 15.836899,19.5 L 18.899479,0.49999994 L 22.096739,19.640104 L 25.204791,0.62751664 L 28.2219,19.544056 L 29.889606,10.210156" id="path3444" style="fill: none; fill-rule: evenodd; stroke: rgb(0, 0, 0); stroke-width: 1px; stroke-linecap: butt; stroke-linejoin: miter; stroke-opacity: 1;"/>
    <path d="M 0.41158316,10.588417 L 5.4688036,10.588417" id="path2159" style="fill: none; fill-rule: evenodd; stroke: rgb(0, 0, 15); stroke-width: 0.823166px; stroke-linecap: butt; stroke-linejoin: miter; stroke-opacity: 1;"/>
    <path d="M 35.349502,10.588417 L 29.890396,10.588417" id="path2161" style="fill: none; fill-rule: evenodd; stroke: rgb(0, 0, 15); stroke-width: 0.823166px; stroke-linecap: butt; stroke-linejoin: miter; stroke-opacity: 1;"/>
  </g><g id="Gnd" transform="matrix(1, 0, 0, 1, 270, 320)">
    <path d="M 10.648082,0.5 L 10.648082,11.468059" id="path3694" style="fill: none; fill-rule: evenodd; stroke: rgb(0, 0, 0); stroke-width: 1px; stroke-linecap: butt; stroke-linejoin: miter; stroke-opacity: 1;"/>
    <path d="M 0.50000006,11.834153 L 19.671275,11.834153" id="path3696" style="fill: none; fill-rule: evenodd; stroke: rgb(0, 0, 0); stroke-width: 1px; stroke-linecap: butt; stroke-linejoin: miter; stroke-opacity: 1;"/>
    <path d="M 2.6480823,14.5 L 17.732881,14.5" id="path3698" style="fill: none; fill-rule: evenodd; stroke: rgb(0, 0, 0); stroke-width: 1px; stroke-linecap: butt; stroke-linejoin: miter; stroke-opacity: 1;"/>
    <path d="M 5.802873,17.5 L 14.648082,17.5" id="path3700" style="fill: none; fill-rule: evenodd; stroke: rgb(0, 0, 0); stroke-width: 1px; stroke-linecap: butt; stroke-linejoin: miter; stroke-opacity: 1;"/>
  </g><g id="V" transform="matrix(1, 0, 0, 1, 270, 130)">
    <rect width="20" height="20" rx="0" ry="0" x="0" y="0" id="rect2162" style="fill: none; fill-opacity: 1; stroke: none; stroke-width: 0.6; stroke-miterlimit: 4; stroke-dasharray: none; stroke-opacity: 1;"/>
    <path d="M 9.8453557,0.75155132 L 9.7889861,20.02609" id="path3694" style="fill: none; fill-rule: evenodd; stroke: rgb(0, 0, 0); stroke-width: 0.96247px; stroke-linecap: butt; stroke-linejoin: miter; stroke-opacity: 1;"/>
    <path d="M 6.8984095,6.0400567 L 9.776679,0.65836743 L 13.116155,5.9214675" id="path5089" style="fill: none; fill-rule: evenodd; stroke: rgb(0, 0, 0); stroke-width: 0.978517px; stroke-linecap: butt; stroke-linejoin: miter; stroke-opacity: 1;"/>
    <text x="11.2168" y="11.5234" id="text5095" xml:space="preserve" style="font-size: 12px; font-style: normal; font-weight: normal; fill: rgb(0, 0, 0); fill-opacity: 1; stroke: none; stroke-width: 1px; stroke-linecap: butt; stroke-linejoin: miter; stroke-opacity: 1; font-family: Bitstream Vera Sans;"><tspan x="11.2168" y="11.5234" id="tspan5097">+</tspan></text>
  </g><line x1="280" y1="150" x2="280" y2="190" style="position: absolute;" stroke="black" stroke-width="2" id="line:93de4066-135f-d6cb-7087-246bddb47a17"/><line x1="280" y1="220" x2="280" y2="260" style="position: absolute;" stroke="black" stroke-width="2" id="line:6eac4c1a-3821-a740-4bba-f2bfc5051a37"/><line x1="280" y1="280" x2="280" y2="330" style="position: absolute;" stroke="black" stroke-width="2" id="line:aa3c1c1c-2ff9-ec6d-fe76-f6deb2259a76"/></svg>