<?xml version="1.0" encoding="UTF-8" standalone="no"?><!--Created by webtronics 0.1--><svg xmlns="http://www.w3.org/2000/svg"><text x="300" y="150" font-size="12">2n2222</text><text x="300" y="162" font-size="12"/><text x="300" y="174" font-size="12"/><g id="Q" transform="matrix(1, 0, 0, 1, 260, 140)">
    <path d="M 39.528327,19.711332 C 39.528327,27.422391 32.281724,33.673439 23.342588,33.673439 C 14.403451,33.673439 7.1568491,27.422391 7.1568492,19.711332 C 7.1568491,12.000274 14.403451,5.7492257 23.342588,5.7492257 C 32.281724,5.7492257 39.528327,12.000274 39.528327,19.711332 L 39.528327,19.711332 z" id="path2170" style="fill: rgb(255, 255, 255); fill-rule: evenodd; stroke: rgb(0, 0, 0); stroke-width: 1px; stroke-linecap: butt; stroke-linejoin: miter; stroke-opacity: 1;"/>
    <path d="M 15.507593,31.530581 L 15.728279,8.4635117" id="path2178" style="fill: none; fill-rule: evenodd; stroke: rgb(0, 0, 0); stroke-width: 1px; stroke-linecap: butt; stroke-linejoin: miter; stroke-opacity: 1;"/>
    <path d="M 6.7582072,19.62019 L 15.286906,19.730534 L 30.046507,32.277381" id="path2180" style="fill: none; fill-rule: evenodd; stroke: rgb(0, 0, 0); stroke-width: 1px; stroke-linecap: butt; stroke-linejoin: miter; stroke-opacity: 1;"/>
    <path d="M 16.111535,19.730533 L 30.728279,6.6063688" id="path2182" style="fill: none; fill-rule: evenodd; stroke: rgb(0, 0, 0); stroke-width: 1px; stroke-linecap: butt; stroke-linejoin: miter; stroke-opacity: 1;"/>
    <path d="M 20.517223,29.049101 L 29.699143,31.727149 L 25.677184,23.383532" id="path2184" style="fill: none; fill-rule: evenodd; stroke: rgb(0, 0, 0); stroke-width: 1px; stroke-linecap: butt; stroke-linejoin: miter; stroke-opacity: 1;"/>
    <path d="M 30.176563,6.500601 L 30.176563,0.49999991" id="path2186" style="fill: none; fill-rule: evenodd; stroke: rgb(0, 0, 15); stroke-width: 1px; stroke-linecap: butt; stroke-linejoin: miter; stroke-opacity: 1;"/>
    <path d="M 29.976563,32.247914 L 29.976563,40.106297" id="path2188" style="fill: none; fill-rule: evenodd; stroke: rgb(0, 0, 15); stroke-width: 1px; stroke-linecap: butt; stroke-linejoin: miter; stroke-opacity: 1;"/>
    <path d="M 0.5,19.617733 L 7.5260889,19.625326" id="path4105" style="fill: none; fill-rule: evenodd; stroke: rgb(0, 0, 15); stroke-width: 1px; stroke-linecap: butt; stroke-linejoin: miter; stroke-opacity: 1;"/>
  </g><g id="R" transform="matrix(0, 1, -1, 0, 300, 180)">
    <path d="M 5.2980198,11.083892 L 7.5499171,0.49999994 L 9.6216626,19.372482 L 13.044546,0.62751664 L 15.836899,19.5 L 18.899479,0.49999994 L 22.096739,19.640104 L 25.204791,0.62751664 L 28.2219,19.544056 L 29.889606,10.210156" id="path3444" style="fill: none; fill-rule: evenodd; stroke: rgb(0, 0, 0); stroke-width: 1px; stroke-linecap: butt; stroke-linejoin: miter; stroke-opacity: 1;"/>
    <path d="M 0.41158316,10.588417 L 5.4688036,10.588417" id="path2159" style="fill: none; fill-rule: evenodd; stroke: rgb(0, 0, 15); stroke-width: 0.823166px; stroke-linecap: butt; stroke-linejoin: miter; stroke-opacity: 1;"/>
    <path d="M 35.349502,10.588417 L 29.890396,10.588417" id="path2161" style="fill: none; fill-rule: evenodd; stroke: rgb(0, 0, 15); stroke-width: 0.823166px; stroke-linecap: butt; stroke-linejoin: miter; stroke-opacity: 1;"/>
  </g><g id="R" transform="matrix(1, 0, 0, 1, 230, 150)">
    <path d="M 5.2980198,11.083892 L 7.5499171,0.49999994 L 9.6216626,19.372482 L 13.044546,0.62751664 L 15.836899,19.5 L 18.899479,0.49999994 L 22.096739,19.640104 L 25.204791,0.62751664 L 28.2219,19.544056 L 29.889606,10.210156" id="path3444" style="fill: none; fill-rule: evenodd; stroke: rgb(0, 0, 0); stroke-width: 1px; stroke-linecap: butt; stroke-linejoin: miter; stroke-opacity: 1;"/>
    <path d="M 0.41158316,10.588417 L 5.4688036,10.588417" id="path2159" style="fill: none; fill-rule: evenodd; stroke: rgb(0, 0, 15); stroke-width: 0.823166px; stroke-linecap: butt; stroke-linejoin: miter; stroke-opacity: 1;"/>
    <path d="M 35.349502,10.588417 L 29.890396,10.588417" id="path2161" style="fill: none; fill-rule: evenodd; stroke: rgb(0, 0, 15); stroke-width: 0.823166px; stroke-linecap: butt; stroke-linejoin: miter; stroke-opacity: 1;"/>
  </g><text x="300" y="200" font-size="12">1k</text><text x="240" y="140" font-size="12">1k</text><g id="V" transform="matrix(1, 0, 0, 1, 280, 60)">
    <rect width="20" height="20" rx="0" ry="0" x="0" y="0" id="rect2162" style="fill: none; fill-opacity: 1; stroke: none; stroke-width: 0.6; stroke-miterlimit: 4; stroke-dasharray: none; stroke-opacity: 1;"/>
    <path d="M 9.8453557,0.75155132 L 9.7889861,20.02609" id="path3694" style="fill: none; fill-rule: evenodd; stroke: rgb(0, 0, 0); stroke-width: 0.96247px; stroke-linecap: butt; stroke-linejoin: miter; stroke-opacity: 1;"/>
    <path d="M 6.8984095,6.0400567 L 9.776679,0.65836743 L 13.116155,5.9214675" id="path5089" style="fill: none; fill-rule: evenodd; stroke: rgb(0, 0, 0); stroke-width: 0.978517px; stroke-linecap: butt; stroke-linejoin: miter; stroke-opacity: 1;"/>
    <text x="11.2168" y="11.5234" id="text5095" xml:space="preserve" style="font-size: 12px; font-style: normal; font-weight: normal; fill: rgb(0, 0, 0); fill-opacity: 1; stroke: none; stroke-width: 1px; stroke-linecap: butt; stroke-linejoin: miter; stroke-opacity: 1; font-family: Bitstream Vera Sans;"><tspan x="11.2168" y="11.5234" id="tspan5097">+</tspan></text>
  </g><text x="300" y="100" font-size="12">1k</text><g id="R" transform="matrix(0, 1, -1, 0, 300, 80)">
    <path d="M 5.2980198,11.083892 L 7.5499171,0.49999994 L 9.6216626,19.372482 L 13.044546,0.62751664 L 15.836899,19.5 L 18.899479,0.49999994 L 22.096739,19.640104 L 25.204791,0.62751664 L 28.2219,19.544056 L 29.889606,10.210156" id="path3444" style="fill: none; fill-rule: evenodd; stroke: rgb(0, 0, 0); stroke-width: 1px; stroke-linecap: butt; stroke-linejoin: miter; stroke-opacity: 1;"/>
    <path d="M 0.41158316,10.588417 L 5.4688036,10.588417" id="path2159" style="fill: none; fill-rule: evenodd; stroke: rgb(0, 0, 15); stroke-width: 0.823166px; stroke-linecap: butt; stroke-linejoin: miter; stroke-opacity: 1;"/>
    <path d="M 35.349502,10.588417 L 29.890396,10.588417" id="path2161" style="fill: none; fill-rule: evenodd; stroke: rgb(0, 0, 15); stroke-width: 0.823166px; stroke-linecap: butt; stroke-linejoin: miter; stroke-opacity: 1;"/>
  </g><line x1="290" y1="110" x2="290" y2="150" style="position: absolute;" stroke="black" stroke-width="2" id="line:4aa2a414-e7b6-2680-956f-9db8b38ed823"/><g transform="matrix(0, 1, -1, 0, 410, 120)" id="Speaker">
    <rect width="30" height="9.0629358" x="10.5" y="10.782949" id="rect4127" style="fill: rgb(255, 255, 255); fill-rule: evenodd; stroke: rgb(0, 0, 0); stroke-width: 1.01501px; stroke-linecap: butt; stroke-linejoin: miter; stroke-opacity: 1;"/>
    <path d="M 10.954546,10.608661 C 9.409091,10.085799 0.5,0.6742871 0.5,0.6742871 L 50.318182,0.5 L 40.136364,10.957236" id="path4129" style="fill: none; fill-rule: evenodd; stroke: rgb(0, 0, 0); stroke-width: 1.01501px; stroke-linecap: butt; stroke-linejoin: miter; stroke-opacity: 1;"/>
    <path d="M 10.633434,20.379502 L 10.633434,30.953156" id="path4133" style="fill: none; fill-rule: evenodd; stroke: rgb(0, 0, 0); stroke-width: 1.01501px; stroke-linecap: butt; stroke-linejoin: miter; stroke-opacity: 1;"/>
    <path d="M 40.366566,20.419654 L 40.366566,30.96424" id="path4135" style="fill: none; fill-rule: evenodd; stroke: rgb(0, 0, 0); stroke-width: 1.06456px; stroke-linecap: butt; stroke-linejoin: miter; stroke-opacity: 1;"/>
  </g><g id="Gnd" transform="matrix(1, 0, 0, 1, 280, 260)">
    <path d="M 10.648082,0.5 L 10.648082,11.468059" id="path3694" style="fill: none; fill-rule: evenodd; stroke: rgb(0, 0, 0); stroke-width: 1px; stroke-linecap: butt; stroke-linejoin: miter; stroke-opacity: 1;"/>
    <path d="M 0.50000006,11.834153 L 19.671275,11.834153" id="path3696" style="fill: none; fill-rule: evenodd; stroke: rgb(0, 0, 0); stroke-width: 1px; stroke-linecap: butt; stroke-linejoin: miter; stroke-opacity: 1;"/>
    <path d="M 2.6480823,14.5 L 17.732881,14.5" id="path3698" style="fill: none; fill-rule: evenodd; stroke: rgb(0, 0, 0); stroke-width: 1px; stroke-linecap: butt; stroke-linejoin: miter; stroke-opacity: 1;"/>
    <path d="M 5.802873,17.5 L 14.648082,17.5" id="path3700" style="fill: none; fill-rule: evenodd; stroke: rgb(0, 0, 0); stroke-width: 1px; stroke-linecap: butt; stroke-linejoin: miter; stroke-opacity: 1;"/>
  </g><circle cx="290" cy="130" r="3" style="position: absolute;" stroke="black" id="shape:a043e5b7-01a2-5f8b-232e-852c6187c857"/><line x1="290" y1="130" x2="380" y2="130" style="position: absolute;" stroke="black" stroke-width="2" id="line:9b9ec798-cf35-4e18-0d73-a6de94ca3432"/><line x1="360" y1="160" x2="390" y2="160" style="position: absolute;" stroke="black" stroke-width="2" id="line:46fe1251-5d87-c653-8b17-1197190827f2"/><line x1="360" y1="160" x2="360" y2="230" style="position: absolute;" stroke="black" stroke-width="2" id="line:68839656-029f-682e-92c7-ea48b9b90a42"/><text x="270" y="182" font-size="12"/><text x="330" y="242" font-size="12"/><text x="330" y="172" font-size="12"/><line x1="290" y1="210" x2="290" y2="260" style="position: absolute;" stroke="black" stroke-width="2" id="line:21d541d7-3fb6-644b-2898-52072ed397b5"/><line x1="360" y1="230" x2="290" y2="230" style="position: absolute;" stroke="black" stroke-width="2" id="line:9ed66fb0-79f0-dffd-bf34-4d74df4d0ff2"/><circle cx="290" cy="230" r="3" style="position: absolute;" stroke="black" id="shape:156a4223-d86f-7c5b-728f-43888e6bd00a"/></svg>