<?xml version="1.0" encoding="UTF-8" standalone="no"?><!--Created by webtronics 0.1--><svg xmlns="http://www.w3.org/2000/svg"><text x="580" y="90" font-size="12">5-15v</text><g id="V" transform="matrix(1, 0, 0, 1, 550, 80)">
    <rect width="20" height="20" rx="0" ry="0" x="0" y="0" id="rect2162" style="fill: none; fill-opacity: 1; stroke: none; stroke-width: 0.6; stroke-miterlimit: 4; stroke-dasharray: none; stroke-opacity: 1;"/>
    <path d="M 9.8453557,0.75155132 L 9.7889861,20.02609" id="path3694" style="fill: none; fill-rule: evenodd; stroke: rgb(0, 0, 0); stroke-width: 0.96247px; stroke-linecap: butt; stroke-linejoin: miter; stroke-opacity: 1;"/>
    <path d="M 6.8984095,6.0400567 L 9.776679,0.65836743 L 13.116155,5.9214675" id="path5089" style="fill: none; fill-rule: evenodd; stroke: rgb(0, 0, 0); stroke-width: 0.978517px; stroke-linecap: butt; stroke-linejoin: miter; stroke-opacity: 1;"/>
    <text x="11.2168" y="11.5234" id="text5095" xml:space="preserve" style="font-size: 12px; font-style: normal; font-weight: normal; fill: rgb(0, 0, 0); fill-opacity: 1; stroke: none; stroke-width: 1px; stroke-linecap: butt; stroke-linejoin: miter; stroke-opacity: 1; font-family: Bitstream Vera Sans;"><tspan x="11.2168" y="11.5234" id="tspan5097">+</tspan></text>
  </g><circle cx="560" cy="110" r="3" style="position: absolute;" stroke="black" id="shape:ac071cc8-8cd7-f632-aec7-786e08709ee7"/><line x1="560" y1="90" x2="560" y2="120" style="position: absolute;" stroke="black" stroke-width="2" id="line:8c951287-3ccb-ebbc-3c8a-e7dcee22eaf7"/><line x1="530" y1="110" x2="560" y2="110" style="position: absolute;" stroke="black" stroke-width="2" id="line:78918794-0af6-37eb-60b3-c8541393c972"/><line x1="530" y1="110" x2="530" y2="170" style="position: absolute;" stroke="black" stroke-width="2" id="line:9074ba48-012a-73ee-867f-682dd67150cb"/><line x1="490" y1="170" x2="530" y2="170" style="position: absolute;" stroke="black" stroke-width="2" id="line:a651705a-c81a-ddce-b273-250123aeeb0f"/><text x="380" y="130" font-size="12">basic monostable circuit</text><text x="520" y="220" font-size="12">.01uf</text><text x="580" y="180" font-size="12">t=r1*c1</text><line x1="350" y1="180" x2="440" y2="180" style="position: absolute;" stroke="black" stroke-width="2" id="line:2aeb2452-6347-8499-dddb-e93c5fb52488"/><text x="580" y="210" font-size="12">c1</text><text x="580" y="140" font-size="12">r1</text><text x="440" y="150" font-size="12">555</text><line x1="510" y1="220" x2="510" y2="230" style="position: absolute;" stroke="black" stroke-width="2" id="line:bff17c11-daf8-95e7-f77f-7eebd01b24fa"/><circle cx="560" cy="230" r="3" style="position: absolute;" stroke="black" id="shape:a2189b14-e521-487b-4fe1-b0265b50eba3"/><line x1="510" y1="230" x2="560" y2="230" style="position: absolute;" stroke="black" stroke-width="2" id="line:4dfaa47b-bedc-2dce-cedd-c9b926e68ec0"/><line x1="490" y1="200" x2="510" y2="200" style="position: absolute;" stroke="black" stroke-width="2" id="line:6ce3575b-aba5-0603-699f-b1cde0d7d8c0"/><g id="C" transform="matrix(0, 1, -1, 0, 520, 200)">
    <path d="M 10.369779,0.65035363 L 10.251843,20.149993" id="path3412" style="fill: none; fill-rule: evenodd; stroke: rgb(0, 0, 0); stroke-width: 1px; stroke-linecap: butt; stroke-linejoin: miter; stroke-opacity: 1;"/>
    <path d="M 15.5,0.5 L 15.5,19.99964" id="path3414" style="fill: none; fill-rule: evenodd; stroke: rgb(0, 0, 0); stroke-width: 1px; stroke-linecap: butt; stroke-linejoin: miter; stroke-opacity: 1;"/>
    <path d="M 15.500001,9.9247403 L 26.500002,9.9996396" id="path3420" style="fill: none; fill-rule: evenodd; stroke: rgb(0, 0, 0); stroke-width: 1px; stroke-linecap: butt; stroke-linejoin: miter; stroke-opacity: 1;"/>
    <path d="M 9.8980368,9.9996389 L 0.5,10.107676" id="path3422" style="fill: none; fill-rule: evenodd; stroke: rgb(0, 0, 0); stroke-width: 1px; stroke-linecap: butt; stroke-linejoin: miter; stroke-opacity: 1;"/>
  </g><circle cx="520" cy="180" r="3" style="position: absolute;" stroke="black" id="shape:11a48796-43ca-96cd-3e76-beb63efbb2b9"/><line x1="520" y1="180" x2="520" y2="190" style="position: absolute;" stroke="black" stroke-width="2" id="line:04a5cea1-d097-4556-d072-54b6c8ccc984"/><line x1="490" y1="190" x2="520" y2="190" style="position: absolute;" stroke="black" stroke-width="2" id="line:e8d5e50f-cad8-9749-f818-b84c73c01316"/><circle cx="560" cy="180" r="3" style="position: absolute;" stroke="black" id="shape:a4af879e-94ac-4c2e-0225-e503f0367584"/><line x1="490" y1="180" x2="560" y2="180" style="position: absolute;" stroke="black" stroke-width="2" id="line:f0d31932-88cb-73a3-fc32-53567e7214d0"/><line x1="560" y1="210" x2="560" y2="250" style="position: absolute;" stroke="black" stroke-width="2" id="line:8ef13ce4-326c-fe38-53bb-6de0e4311713"/><g id="Gnd" transform="matrix(1, 0, 0, 1, 550, 240)">
    <path d="M 10.648082,0.5 L 10.648082,11.468059" id="path3694" style="fill: none; fill-rule: evenodd; stroke: rgb(0, 0, 0); stroke-width: 1px; stroke-linecap: butt; stroke-linejoin: miter; stroke-opacity: 1;"/>
    <path d="M 0.50000006,11.834153 L 19.671275,11.834153" id="path3696" style="fill: none; fill-rule: evenodd; stroke: rgb(0, 0, 0); stroke-width: 1px; stroke-linecap: butt; stroke-linejoin: miter; stroke-opacity: 1;"/>
    <path d="M 2.6480823,14.5 L 17.732881,14.5" id="path3698" style="fill: none; fill-rule: evenodd; stroke: rgb(0, 0, 0); stroke-width: 1px; stroke-linecap: butt; stroke-linejoin: miter; stroke-opacity: 1;"/>
    <path d="M 5.802873,17.5 L 14.648082,17.5" id="path3700" style="fill: none; fill-rule: evenodd; stroke: rgb(0, 0, 0); stroke-width: 1px; stroke-linecap: butt; stroke-linejoin: miter; stroke-opacity: 1;"/>
  </g><line x1="560" y1="150" x2="560" y2="190" style="position: absolute;" stroke="black" stroke-width="2" id="line:de8f6f83-f2fc-b1b9-d6ca-15f59c092686"/><g id="C" transform="matrix(0, 1, -1, 0, 570, 190)">
    <path d="M 10.369779,0.65035363 L 10.251843,20.149993" id="path3412" style="fill: none; fill-rule: evenodd; stroke: rgb(0, 0, 0); stroke-width: 1px; stroke-linecap: butt; stroke-linejoin: miter; stroke-opacity: 1;"/>
    <path d="M 15.5,0.5 L 15.5,19.99964" id="path3414" style="fill: none; fill-rule: evenodd; stroke: rgb(0, 0, 0); stroke-width: 1px; stroke-linecap: butt; stroke-linejoin: miter; stroke-opacity: 1;"/>
    <path d="M 15.500001,9.9247403 L 26.500002,9.9996396" id="path3420" style="fill: none; fill-rule: evenodd; stroke: rgb(0, 0, 0); stroke-width: 1px; stroke-linecap: butt; stroke-linejoin: miter; stroke-opacity: 1;"/>
    <path d="M 9.8980368,9.9996389 L 0.5,10.107676" id="path3422" style="fill: none; fill-rule: evenodd; stroke: rgb(0, 0, 0); stroke-width: 1px; stroke-linecap: butt; stroke-linejoin: miter; stroke-opacity: 1;"/>
  </g><g id="R" transform="matrix(0, 1, -1, 0, 570, 120)">
    <path d="M 5.2980198,11.083892 L 7.5499171,0.49999994 L 9.6216626,19.372482 L 13.044546,0.62751664 L 15.836899,19.5 L 18.899479,0.49999994 L 22.096739,19.640104 L 25.204791,0.62751664 L 28.2219,19.544056 L 29.889606,10.210156" id="path3444" style="fill: none; fill-rule: evenodd; stroke: rgb(0, 0, 0); stroke-width: 1px; stroke-linecap: butt; stroke-linejoin: miter; stroke-opacity: 1;"/>
    <path d="M 0.41158316,10.588417 L 5.4688036,10.588417" id="path2159" style="fill: none; fill-rule: evenodd; stroke: rgb(0, 0, 15); stroke-width: 0.823166px; stroke-linecap: butt; stroke-linejoin: miter; stroke-opacity: 1;"/>
    <path d="M 35.349502,10.588417 L 29.890396,10.588417" id="path2161" style="fill: none; fill-rule: evenodd; stroke: rgb(0, 0, 15); stroke-width: 0.823166px; stroke-linecap: butt; stroke-linejoin: miter; stroke-opacity: 1;"/>
  </g><g transform="matrix(1, 0, 0, 1, 430, 160)"><rect x="10" y="0" width="40" height="50" style="fill: white; stroke: rgb(0, 0, 0); stroke-width: 2px;"/><line x1="0" y1="10" x2="10" y2="10" stroke="black" stroke-width="2"/><line x1="50" y1="10" x2="60" y2="10" stroke="black" stroke-width="2"/><line x1="0" y1="20" x2="10" y2="20" stroke="black" stroke-width="2"/><line x1="50" y1="20" x2="60" y2="20" stroke="black" stroke-width="2"/><line x1="0" y1="30" x2="10" y2="30" stroke="black" stroke-width="2"/><line x1="50" y1="30" x2="60" y2="30" stroke="black" stroke-width="2"/><line x1="0" y1="40" x2="10" y2="40" stroke="black" stroke-width="2"/><line x1="50" y1="40" x2="60" y2="40" stroke="black" stroke-width="2"/><circle cx="20" cy="10" r="3" stroke="black" id="shape:c177bc2d-7bc0-423e-f352-98406636b9ca"/></g><line x1="390" y1="190" x2="430" y2="190" style="position: absolute;" stroke="black" stroke-width="2" id="line:f9d75cc9-4850-4576-5334-9a55ecf128fc"/><line x1="390" y1="190" x2="390" y2="240" style="position: absolute;" stroke="black" stroke-width="2" id="line:409d3177-6753-dfe1-8cde-1b6b17baf56b"/><line x1="390" y1="240" x2="450" y2="240" style="position: absolute;" stroke="black" stroke-width="2" id="line:4ea07461-ff98-0288-d350-347029d62861"/><text x="330" y="180" font-size="12">in</text><text x="460" y="240" font-size="12">out</text><text x="370" y="152" font-size="12"/><text x="370" y="164" font-size="12"/><text x="170" y="192" font-size="12"/><text x="170" y="204" font-size="12"/><text x="310" y="282" font-size="12"/><text x="310" y="294" font-size="12"/><text x="370" y="242" font-size="12"/><text x="370" y="254" font-size="12"/><text x="360" y="262" font-size="12"/><text x="360" y="274" font-size="12"/><text x="360" y="202" font-size="12"/><text x="360" y="214" font-size="12"/><text x="230" y="212" font-size="12"/><text x="230" y="224" font-size="12"/><g id="R" transform="matrix(1, 0, 0, 1, 780, 110)">
    <path d="M 5.2980198,11.083892 L 7.5499171,0.49999994 L 9.6216626,19.372482 L 13.044546,0.62751664 L 15.836899,19.5 L 18.899479,0.49999994 L 22.096739,19.640104 L 25.204791,0.62751664 L 28.2219,19.544056 L 29.889606,10.210156" id="path3444" style="fill: none; fill-rule: evenodd; stroke: rgb(0, 0, 0); stroke-width: 1px; stroke-linecap: butt; stroke-linejoin: miter; stroke-opacity: 1;"/>
    <path d="M 0.41158316,10.588417 L 5.4688036,10.588417" id="path2159" style="fill: none; fill-rule: evenodd; stroke: rgb(0, 0, 15); stroke-width: 0.823166px; stroke-linecap: butt; stroke-linejoin: miter; stroke-opacity: 1;"/>
    <path d="M 35.349502,10.588417 L 29.890396,10.588417" id="path2161" style="fill: none; fill-rule: evenodd; stroke: rgb(0, 0, 15); stroke-width: 0.823166px; stroke-linecap: butt; stroke-linejoin: miter; stroke-opacity: 1;"/>
  </g><g id="R" transform="matrix(1, 0, 0, 1, 780, 140)">
    <path d="M 5.2980198,11.083892 L 7.5499171,0.49999994 L 9.6216626,19.372482 L 13.044546,0.62751664 L 15.836899,19.5 L 18.899479,0.49999994 L 22.096739,19.640104 L 25.204791,0.62751664 L 28.2219,19.544056 L 29.889606,10.210156" id="path3444" style="fill: none; fill-rule: evenodd; stroke: rgb(0, 0, 0); stroke-width: 1px; stroke-linecap: butt; stroke-linejoin: miter; stroke-opacity: 1;"/>
    <path d="M 0.41158316,10.588417 L 5.4688036,10.588417" id="path2159" style="fill: none; fill-rule: evenodd; stroke: rgb(0, 0, 15); stroke-width: 0.823166px; stroke-linecap: butt; stroke-linejoin: miter; stroke-opacity: 1;"/>
    <path d="M 35.349502,10.588417 L 29.890396,10.588417" id="path2161" style="fill: none; fill-rule: evenodd; stroke: rgb(0, 0, 15); stroke-width: 0.823166px; stroke-linecap: butt; stroke-linejoin: miter; stroke-opacity: 1;"/>
  </g><g id="R" transform="matrix(1, 0, 0, 1, 780, 170)">
    <path d="M 5.2980198,11.083892 L 7.5499171,0.49999994 L 9.6216626,19.372482 L 13.044546,0.62751664 L 15.836899,19.5 L 18.899479,0.49999994 L 22.096739,19.640104 L 25.204791,0.62751664 L 28.2219,19.544056 L 29.889606,10.210156" id="path3444" style="fill: none; fill-rule: evenodd; stroke: rgb(0, 0, 0); stroke-width: 1px; stroke-linecap: butt; stroke-linejoin: miter; stroke-opacity: 1;"/>
    <path d="M 0.41158316,10.588417 L 5.4688036,10.588417" id="path2159" style="fill: none; fill-rule: evenodd; stroke: rgb(0, 0, 15); stroke-width: 0.823166px; stroke-linecap: butt; stroke-linejoin: miter; stroke-opacity: 1;"/>
    <path d="M 35.349502,10.588417 L 29.890396,10.588417" id="path2161" style="fill: none; fill-rule: evenodd; stroke: rgb(0, 0, 15); stroke-width: 0.823166px; stroke-linecap: butt; stroke-linejoin: miter; stroke-opacity: 1;"/>
  </g><g id="R" transform="matrix(1, 0, 0, 1, 780, 200)">
    <path d="M 5.2980198,11.083892 L 7.5499171,0.49999994 L 9.6216626,19.372482 L 13.044546,0.62751664 L 15.836899,19.5 L 18.899479,0.49999994 L 22.096739,19.640104 L 25.204791,0.62751664 L 28.2219,19.544056 L 29.889606,10.210156" id="path3444" style="fill: none; fill-rule: evenodd; stroke: rgb(0, 0, 0); stroke-width: 1px; stroke-linecap: butt; stroke-linejoin: miter; stroke-opacity: 1;"/>
    <path d="M 0.41158316,10.588417 L 5.4688036,10.588417" id="path2159" style="fill: none; fill-rule: evenodd; stroke: rgb(0, 0, 15); stroke-width: 0.823166px; stroke-linecap: butt; stroke-linejoin: miter; stroke-opacity: 1;"/>
    <path d="M 35.349502,10.588417 L 29.890396,10.588417" id="path2161" style="fill: none; fill-rule: evenodd; stroke: rgb(0, 0, 15); stroke-width: 0.823166px; stroke-linecap: butt; stroke-linejoin: miter; stroke-opacity: 1;"/>
  </g><g id="D" transform="matrix(1, 0, 0, 1, 830, 100)">
    <path d="M 9.556699,29.385935 L 9.556699,10.134292" id="path2210" style="fill: none; fill-rule: evenodd; stroke: rgb(0, 0, 0); stroke-width: 0.908719px; stroke-linecap: butt; stroke-linejoin: miter; stroke-opacity: 1;"/>
    <path d="M 10.556699,19.022098 L 29.530771,10.294655 L 29.530771,29.385935 L 10.556699,19.022098 z" id="path2220" style="fill: rgb(0, 0, 0); fill-opacity: 1; fill-rule: evenodd; stroke: rgb(0, 0, 0); stroke-width: 0.908719px; stroke-linecap: butt; stroke-linejoin: miter; stroke-opacity: 1;"/>
    <path d="M 0.5,19.340295 L 38.561819,19.340295" id="path3202" style="fill: none; fill-rule: evenodd; stroke: rgb(0, 0, 0); stroke-width: 1px; stroke-linecap: butt; stroke-linejoin: miter; stroke-opacity: 1;"/>
    <path d="M 18.745196,12.340295 L 11.13586,1.3624071" id="path3210" style="fill: none; fill-rule: evenodd; stroke: rgb(0, 0, 0); stroke-width: 1px; stroke-linecap: butt; stroke-linejoin: miter; stroke-opacity: 1;"/>
    <path d="M 12.406482,9.3402953 L 10.602339,0.5 L 17.818907,4.8299403" id="path2163" style="fill: none; fill-rule: evenodd; stroke: rgb(0, 0, 0); stroke-width: 1px; stroke-linecap: butt; stroke-linejoin: miter; stroke-opacity: 1;"/>
  </g><g id="D" transform="matrix(1, 0, 0, 1, 830, 130)">
    <path d="M 9.556699,29.385935 L 9.556699,10.134292" id="path2210" style="fill: none; fill-rule: evenodd; stroke: rgb(0, 0, 0); stroke-width: 0.908719px; stroke-linecap: butt; stroke-linejoin: miter; stroke-opacity: 1;"/>
    <path d="M 10.556699,19.022098 L 29.530771,10.294655 L 29.530771,29.385935 L 10.556699,19.022098 z" id="path2220" style="fill: rgb(0, 0, 0); fill-opacity: 1; fill-rule: evenodd; stroke: rgb(0, 0, 0); stroke-width: 0.908719px; stroke-linecap: butt; stroke-linejoin: miter; stroke-opacity: 1;"/>
    <path d="M 0.5,19.340295 L 38.561819,19.340295" id="path3202" style="fill: none; fill-rule: evenodd; stroke: rgb(0, 0, 0); stroke-width: 1px; stroke-linecap: butt; stroke-linejoin: miter; stroke-opacity: 1;"/>
    <path d="M 18.745196,12.340295 L 11.13586,1.3624071" id="path3210" style="fill: none; fill-rule: evenodd; stroke: rgb(0, 0, 0); stroke-width: 1px; stroke-linecap: butt; stroke-linejoin: miter; stroke-opacity: 1;"/>
    <path d="M 12.406482,9.3402953 L 10.602339,0.5 L 17.818907,4.8299403" id="path2163" style="fill: none; fill-rule: evenodd; stroke: rgb(0, 0, 0); stroke-width: 1px; stroke-linecap: butt; stroke-linejoin: miter; stroke-opacity: 1;"/>
  </g><g id="D" transform="matrix(1, 0, 0, 1, 830, 160)">
    <path d="M 9.556699,29.385935 L 9.556699,10.134292" id="path2210" style="fill: none; fill-rule: evenodd; stroke: rgb(0, 0, 0); stroke-width: 0.908719px; stroke-linecap: butt; stroke-linejoin: miter; stroke-opacity: 1;"/>
    <path d="M 10.556699,19.022098 L 29.530771,10.294655 L 29.530771,29.385935 L 10.556699,19.022098 z" id="path2220" style="fill: rgb(0, 0, 0); fill-opacity: 1; fill-rule: evenodd; stroke: rgb(0, 0, 0); stroke-width: 0.908719px; stroke-linecap: butt; stroke-linejoin: miter; stroke-opacity: 1;"/>
    <path d="M 0.5,19.340295 L 38.561819,19.340295" id="path3202" style="fill: none; fill-rule: evenodd; stroke: rgb(0, 0, 0); stroke-width: 1px; stroke-linecap: butt; stroke-linejoin: miter; stroke-opacity: 1;"/>
    <path d="M 18.745196,12.340295 L 11.13586,1.3624071" id="path3210" style="fill: none; fill-rule: evenodd; stroke: rgb(0, 0, 0); stroke-width: 1px; stroke-linecap: butt; stroke-linejoin: miter; stroke-opacity: 1;"/>
    <path d="M 12.406482,9.3402953 L 10.602339,0.5 L 17.818907,4.8299403" id="path2163" style="fill: none; fill-rule: evenodd; stroke: rgb(0, 0, 0); stroke-width: 1px; stroke-linecap: butt; stroke-linejoin: miter; stroke-opacity: 1;"/>
  </g><g id="D" transform="matrix(1, 0, 0, 1, 830, 190)">
    <path d="M 9.556699,29.385935 L 9.556699,10.134292" id="path2210" style="fill: none; fill-rule: evenodd; stroke: rgb(0, 0, 0); stroke-width: 0.908719px; stroke-linecap: butt; stroke-linejoin: miter; stroke-opacity: 1;"/>
    <path d="M 10.556699,19.022098 L 29.530771,10.294655 L 29.530771,29.385935 L 10.556699,19.022098 z" id="path2220" style="fill: rgb(0, 0, 0); fill-opacity: 1; fill-rule: evenodd; stroke: rgb(0, 0, 0); stroke-width: 0.908719px; stroke-linecap: butt; stroke-linejoin: miter; stroke-opacity: 1;"/>
    <path d="M 0.5,19.340295 L 38.561819,19.340295" id="path3202" style="fill: none; fill-rule: evenodd; stroke: rgb(0, 0, 0); stroke-width: 1px; stroke-linecap: butt; stroke-linejoin: miter; stroke-opacity: 1;"/>
    <path d="M 18.745196,12.340295 L 11.13586,1.3624071" id="path3210" style="fill: none; fill-rule: evenodd; stroke: rgb(0, 0, 0); stroke-width: 1px; stroke-linecap: butt; stroke-linejoin: miter; stroke-opacity: 1;"/>
    <path d="M 12.406482,9.3402953 L 10.602339,0.5 L 17.818907,4.8299403" id="path2163" style="fill: none; fill-rule: evenodd; stroke: rgb(0, 0, 0); stroke-width: 1px; stroke-linecap: butt; stroke-linejoin: miter; stroke-opacity: 1;"/>
  </g><g id="V" transform="matrix(1, 0, 0, 1, 650, 30)">
    <rect width="20" height="20" rx="0" ry="0" x="0" y="0" id="rect2162" style="fill: none; fill-opacity: 1; stroke: none; stroke-width: 0.6; stroke-miterlimit: 4; stroke-dasharray: none; stroke-opacity: 1;"/>
    <path d="M 9.8453557,0.75155132 L 9.7889861,20.02609" id="path3694" style="fill: none; fill-rule: evenodd; stroke: rgb(0, 0, 0); stroke-width: 0.96247px; stroke-linecap: butt; stroke-linejoin: miter; stroke-opacity: 1;"/>
    <path d="M 6.8984095,6.0400567 L 9.776679,0.65836743 L 13.116155,5.9214675" id="path5089" style="fill: none; fill-rule: evenodd; stroke: rgb(0, 0, 0); stroke-width: 0.978517px; stroke-linecap: butt; stroke-linejoin: miter; stroke-opacity: 1;"/>
    <text x="11.2168" y="11.5234" id="text5095" xml:space="preserve" style="font-size: 12px; font-style: normal; font-weight: normal; fill: rgb(0, 0, 0); fill-opacity: 1; stroke: none; stroke-width: 1px; stroke-linecap: butt; stroke-linejoin: miter; stroke-opacity: 1; font-family: Bitstream Vera Sans;"><tspan x="11.2168" y="11.5234" id="tspan5097">+</tspan></text>
  </g><line x1="730" y1="260" x2="750" y2="260" style="position: absolute;" stroke="black" stroke-width="2" id="line:3a0ef336-32d9-c434-f815-b59d57421012"/><line x1="750" y1="260" x2="750" y2="290" style="position: absolute;" stroke="black" stroke-width="2" id="line:7a190966-1c44-1efe-60e6-f15403abdb45"/><line x1="660" y1="130" x2="670" y2="130" style="position: absolute;" stroke="black" stroke-width="2" id="line:b631dee1-d227-0ff5-039e-8b65c9d215fa"/><line x1="660" y1="110" x2="660" y2="130" style="position: absolute;" stroke="black" stroke-width="2" id="line:646485ab-927c-f545-a2ba-e49937667696"/><g id="Gnd" transform="matrix(1, 0, 0, 1, 740, 280)">
    <path d="M 10.648082,0.5 L 10.648082,11.468059" id="path3694" style="fill: none; fill-rule: evenodd; stroke: rgb(0, 0, 0); stroke-width: 1px; stroke-linecap: butt; stroke-linejoin: miter; stroke-opacity: 1;"/>
    <path d="M 0.50000006,11.834153 L 19.671275,11.834153" id="path3696" style="fill: none; fill-rule: evenodd; stroke: rgb(0, 0, 0); stroke-width: 1px; stroke-linecap: butt; stroke-linejoin: miter; stroke-opacity: 1;"/>
    <path d="M 2.6480823,14.5 L 17.732881,14.5" id="path3698" style="fill: none; fill-rule: evenodd; stroke: rgb(0, 0, 0); stroke-width: 1px; stroke-linecap: butt; stroke-linejoin: miter; stroke-opacity: 1;"/>
    <path d="M 5.802873,17.5 L 14.648082,17.5" id="path3700" style="fill: none; fill-rule: evenodd; stroke: rgb(0, 0, 0); stroke-width: 1px; stroke-linecap: butt; stroke-linejoin: miter; stroke-opacity: 1;"/>
  </g><g transform="matrix(1, 0, 0, 1, 670, 120)"><rect x="10" y="0" width="40" height="150" style="fill: white; stroke: rgb(0, 0, 0); stroke-width: 2px;"/><line x1="0" y1="10" x2="10" y2="10" stroke="black" stroke-width="2"/><line x1="50" y1="10" x2="60" y2="10" stroke="black" stroke-width="2"/><line x1="0" y1="20" x2="10" y2="20" stroke="black" stroke-width="2"/><line x1="50" y1="20" x2="60" y2="20" stroke="black" stroke-width="2"/><line x1="0" y1="30" x2="10" y2="30" stroke="black" stroke-width="2"/><line x1="50" y1="30" x2="60" y2="30" stroke="black" stroke-width="2"/><line x1="0" y1="40" x2="10" y2="40" stroke="black" stroke-width="2"/><line x1="50" y1="40" x2="60" y2="40" stroke="black" stroke-width="2"/><line x1="0" y1="50" x2="10" y2="50" stroke="black" stroke-width="2"/><line x1="50" y1="50" x2="60" y2="50" stroke="black" stroke-width="2"/><line x1="0" y1="60" x2="10" y2="60" stroke="black" stroke-width="2"/><line x1="50" y1="60" x2="60" y2="60" stroke="black" stroke-width="2"/><line x1="0" y1="70" x2="10" y2="70" stroke="black" stroke-width="2"/><line x1="50" y1="70" x2="60" y2="70" stroke="black" stroke-width="2"/><line x1="0" y1="80" x2="10" y2="80" stroke="black" stroke-width="2"/><line x1="50" y1="80" x2="60" y2="80" stroke="black" stroke-width="2"/><line x1="0" y1="90" x2="10" y2="90" stroke="black" stroke-width="2"/><line x1="50" y1="90" x2="60" y2="90" stroke="black" stroke-width="2"/><line x1="0" y1="100" x2="10" y2="100" stroke="black" stroke-width="2"/><line x1="50" y1="100" x2="60" y2="100" stroke="black" stroke-width="2"/><line x1="0" y1="110" x2="10" y2="110" stroke="black" stroke-width="2"/><line x1="50" y1="110" x2="60" y2="110" stroke="black" stroke-width="2"/><line x1="0" y1="120" x2="10" y2="120" stroke="black" stroke-width="2"/><line x1="50" y1="120" x2="60" y2="120" stroke="black" stroke-width="2"/><line x1="0" y1="130" x2="10" y2="130" stroke="black" stroke-width="2"/><line x1="50" y1="130" x2="60" y2="130" stroke="black" stroke-width="2"/><line x1="0" y1="140" x2="10" y2="140" stroke="black" stroke-width="2"/><line x1="50" y1="140" x2="60" y2="140" stroke="black" stroke-width="2"/><circle cx="20" cy="10" r="3" stroke="black" id="shape:04876337-e97b-3924-460f-81b650a3f9e9"/></g><line x1="730" y1="130" x2="750" y2="130" style="position: absolute;" stroke="black" stroke-width="2" id="line:85c23579-06fb-3961-e962-aaae41273e96"/><line x1="750" y1="120" x2="750" y2="130" style="position: absolute;" stroke="black" stroke-width="2" id="line:a3b4fd7f-c977-5927-0e34-60cfdcf9e0e6"/><line x1="750" y1="120" x2="790" y2="120" style="position: absolute;" stroke="black" stroke-width="2" id="line:f49215c7-36a8-0016-3bc5-f777a6256cf0"/><line x1="770" y1="150" x2="780" y2="150" style="position: absolute;" stroke="black" stroke-width="2" id="line:034c87f5-f830-28f9-6262-606c91583684"/><line x1="770" y1="140" x2="770" y2="150" style="position: absolute;" stroke="black" stroke-width="2" id="line:8a7517e5-cd71-1677-0150-3d69b12b40cb"/><line x1="730" y1="140" x2="770" y2="140" style="position: absolute;" stroke="black" stroke-width="2" id="line:1820655d-0e61-1e50-f25d-6c51b3250f27"/><line x1="730" y1="150" x2="760" y2="150" style="position: absolute;" stroke="black" stroke-width="2" id="line:c46e5dfe-abff-4c26-c02c-fa83dac4d950"/><line x1="760" y1="150" x2="760" y2="180" style="position: absolute;" stroke="black" stroke-width="2" id="line:09abc83c-d9b2-ac69-5d73-38cb73cc163c"/><line x1="760" y1="180" x2="790" y2="180" style="position: absolute;" stroke="black" stroke-width="2" id="line:7892877a-e1b4-75e9-ea37-a12f74952f84"/><line x1="730" y1="160" x2="750" y2="160" style="position: absolute;" stroke="black" stroke-width="2" id="line:9323b503-1c52-bbcd-035c-d6f5de0cac54"/><line x1="750" y1="160" x2="750" y2="210" style="position: absolute;" stroke="black" stroke-width="2" id="line:ba3f4ea5-dd36-53e2-4c44-582c98856bc9"/><line x1="750" y1="210" x2="780" y2="210" style="position: absolute;" stroke="black" stroke-width="2" id="line:c4094da1-c4c6-df62-6985-2956d56fa155"/><line x1="810" y1="120" x2="840" y2="120" style="position: absolute;" stroke="black" stroke-width="2" id="line:24522089-f203-9bbb-7edf-a7a65053db2f"/><line x1="810" y1="150" x2="840" y2="150" style="position: absolute;" stroke="black" stroke-width="2" id="line:59a8dad1-1e44-b9ee-41f2-617eac612933"/><line x1="810" y1="180" x2="840" y2="180" style="position: absolute;" stroke="black" stroke-width="2" id="line:80a66811-bb67-9959-685e-642d205300cf"/><line x1="810" y1="210" x2="840" y2="210" style="position: absolute;" stroke="black" stroke-width="2" id="line:0205fae7-eeef-49ff-35ee-28569ca007f4"/><line x1="860" y1="210" x2="910" y2="210" style="position: absolute;" stroke="black" stroke-width="2" id="line:7fc31f4e-b862-d8fd-f2d7-b694e3459514"/><line x1="910" y1="120" x2="910" y2="210" style="position: absolute;" stroke="black" stroke-width="2" id="line:0485e3d4-041d-138e-fe04-6d9a492204a9"/><circle cx="910" cy="120" r="3" style="position: absolute;" stroke="black" id="shape:f2d66472-b8b8-2bb0-e825-d7b88ad7fbb5"/><line x1="910" y1="60" x2="910" y2="120" style="position: absolute;" stroke="black" stroke-width="2" id="line:3cd2884b-4e9a-f6f7-2c69-f908709bcd78"/><line x1="660" y1="60" x2="910" y2="60" style="position: absolute;" stroke="black" stroke-width="2" id="line:dc21612b-1c05-5b7c-578f-5bea8f9614f1"/><line x1="660" y1="50" x2="660" y2="110" style="position: absolute;" stroke="black" stroke-width="2" id="line:cceb8df0-196c-3630-636a-f9faad6161ce"/><circle cx="660" cy="60" r="3" style="position: absolute;" stroke="black" id="shape:fa9d1505-2292-4474-08b4-f0b8aa4c2a32"/><line x1="870" y1="150" x2="910" y2="150" style="position: absolute;" stroke="black" stroke-width="2" id="line:b95d6743-c9e2-3ac6-5cfc-65140432c11e"/><circle cx="910" cy="150" r="3" style="position: absolute;" stroke="black" id="shape:1ce5a74a-45b8-1960-06d8-2aeaeb8622e8"/><line x1="860" y1="180" x2="910" y2="180" style="position: absolute;" stroke="black" stroke-width="2" id="line:168ac616-1ea5-1c37-d97d-1f818520d2b4"/><circle cx="910" cy="180" r="3" style="position: absolute;" stroke="black" id="shape:4e7d5823-c0ac-effa-5fc6-a74e2c411b81"/><line x1="860" y1="120" x2="910" y2="120" style="position: absolute;" stroke="black" stroke-width="2" id="line:fd976417-1280-6bee-b8e0-d50c20807e73"/><text x="300" y="40" font-size="12">5-15v</text><g transform="matrix(1, 0, 0, 1, 180, 140)"><rect x="10" y="0" width="40" height="50" style="fill: white; stroke: rgb(0, 0, 0); stroke-width: 2px;"/><line x1="0" y1="10" x2="10" y2="10" stroke="black" stroke-width="2"/><line x1="50" y1="10" x2="60" y2="10" stroke="black" stroke-width="2"/><line x1="0" y1="20" x2="10" y2="20" stroke="black" stroke-width="2"/><line x1="50" y1="20" x2="60" y2="20" stroke="black" stroke-width="2"/><line x1="0" y1="30" x2="10" y2="30" stroke="black" stroke-width="2"/><line x1="50" y1="30" x2="60" y2="30" stroke="black" stroke-width="2"/><line x1="0" y1="40" x2="10" y2="40" stroke="black" stroke-width="2"/><line x1="50" y1="40" x2="60" y2="40" stroke="black" stroke-width="2"/><circle cx="20" cy="10" r="3" stroke="black" id="shape:64b24059-6111-4f40-822e-1c8957c7a9ba"/></g><g id="R" transform="matrix(0, 1, -1, 0, 300, 70)">
    <path d="M 5.2980198,11.083892 L 7.5499171,0.49999994 L 9.6216626,19.372482 L 13.044546,0.62751664 L 15.836899,19.5 L 18.899479,0.49999994 L 22.096739,19.640104 L 25.204791,0.62751664 L 28.2219,19.544056 L 29.889606,10.210156" id="path3444" style="fill: none; fill-rule: evenodd; stroke: rgb(0, 0, 0); stroke-width: 1px; stroke-linecap: butt; stroke-linejoin: miter; stroke-opacity: 1;"/>
    <path d="M 0.41158316,10.588417 L 5.4688036,10.588417" id="path2159" style="fill: none; fill-rule: evenodd; stroke: rgb(0, 0, 15); stroke-width: 0.823166px; stroke-linecap: butt; stroke-linejoin: miter; stroke-opacity: 1;"/>
    <path d="M 35.349502,10.588417 L 29.890396,10.588417" id="path2161" style="fill: none; fill-rule: evenodd; stroke: rgb(0, 0, 15); stroke-width: 0.823166px; stroke-linecap: butt; stroke-linejoin: miter; stroke-opacity: 1;"/>
  </g><g id="R" transform="matrix(0, 1, -1, 0, 300, 130)">
    <path d="M 5.2980198,11.083892 L 7.5499171,0.49999994 L 9.6216626,19.372482 L 13.044546,0.62751664 L 15.836899,19.5 L 18.899479,0.49999994 L 22.096739,19.640104 L 25.204791,0.62751664 L 28.2219,19.544056 L 29.889606,10.210156" id="path3444" style="fill: none; fill-rule: evenodd; stroke: rgb(0, 0, 0); stroke-width: 1px; stroke-linecap: butt; stroke-linejoin: miter; stroke-opacity: 1;"/>
    <path d="M 0.41158316,10.588417 L 5.4688036,10.588417" id="path2159" style="fill: none; fill-rule: evenodd; stroke: rgb(0, 0, 15); stroke-width: 0.823166px; stroke-linecap: butt; stroke-linejoin: miter; stroke-opacity: 1;"/>
    <path d="M 35.349502,10.588417 L 29.890396,10.588417" id="path2161" style="fill: none; fill-rule: evenodd; stroke: rgb(0, 0, 15); stroke-width: 0.823166px; stroke-linecap: butt; stroke-linejoin: miter; stroke-opacity: 1;"/>
  </g><g id="V" transform="matrix(1, 0, 0, 1, 280, 30)">
    <rect width="20" height="20" rx="0" ry="0" x="0" y="0" id="rect2162" style="fill: none; fill-opacity: 1; stroke: none; stroke-width: 0.6; stroke-miterlimit: 4; stroke-dasharray: none; stroke-opacity: 1;"/>
    <path d="M 9.8453557,0.75155132 L 9.7889861,20.02609" id="path3694" style="fill: none; fill-rule: evenodd; stroke: rgb(0, 0, 0); stroke-width: 0.96247px; stroke-linecap: butt; stroke-linejoin: miter; stroke-opacity: 1;"/>
    <path d="M 6.8984095,6.0400567 L 9.776679,0.65836743 L 13.116155,5.9214675" id="path5089" style="fill: none; fill-rule: evenodd; stroke: rgb(0, 0, 0); stroke-width: 0.978517px; stroke-linecap: butt; stroke-linejoin: miter; stroke-opacity: 1;"/>
    <text x="11.2168" y="11.5234" id="text5095" xml:space="preserve" style="font-size: 12px; font-style: normal; font-weight: normal; fill: rgb(0, 0, 0); fill-opacity: 1; stroke: none; stroke-width: 1px; stroke-linecap: butt; stroke-linejoin: miter; stroke-opacity: 1; font-family: Bitstream Vera Sans;"><tspan x="11.2168" y="11.5234" id="tspan5097">+</tspan></text>
  </g><line x1="240" y1="150" x2="250" y2="150" style="position: absolute;" stroke="black" stroke-width="2" id="line:1ec6d101-6245-cdde-87cd-b4dd03213c94"/><line x1="250" y1="60" x2="250" y2="150" style="position: absolute;" stroke="black" stroke-width="2" id="line:c1432c98-fec8-a9b3-99e3-8a76ef36fd5c"/><line x1="250" y1="60" x2="290" y2="60" style="position: absolute;" stroke="black" stroke-width="2" id="line:2602c8fb-72b2-ad41-c49d-93a2f7eb3e25"/><line x1="290" y1="50" x2="290" y2="70" style="position: absolute;" stroke="black" stroke-width="2" id="line:31610895-a912-3372-1074-6a8611594e6f"/><circle cx="290" cy="60" r="3" style="position: absolute;" stroke="black" id="shape:044465e1-cbb8-3235-b18d-a70b2b826cd9"/><line x1="290" y1="100" x2="290" y2="130" style="position: absolute;" stroke="black" stroke-width="2" id="line:b0b5c8b1-58f9-2c8f-6b68-d375170746c7"/><g id="C" transform="matrix(0, 1, -1, 0, 300, 190)">
    <path d="M 10.369779,0.65035363 L 10.251843,20.149993" id="path3412" style="fill: none; fill-rule: evenodd; stroke: rgb(0, 0, 0); stroke-width: 1px; stroke-linecap: butt; stroke-linejoin: miter; stroke-opacity: 1;"/>
    <path d="M 15.5,0.5 L 15.5,19.99964" id="path3414" style="fill: none; fill-rule: evenodd; stroke: rgb(0, 0, 0); stroke-width: 1px; stroke-linecap: butt; stroke-linejoin: miter; stroke-opacity: 1;"/>
    <path d="M 15.500001,9.9247403 L 26.500002,9.9996396" id="path3420" style="fill: none; fill-rule: evenodd; stroke: rgb(0, 0, 0); stroke-width: 1px; stroke-linecap: butt; stroke-linejoin: miter; stroke-opacity: 1;"/>
    <path d="M 9.8980368,9.9996389 L 0.5,10.107676" id="path3422" style="fill: none; fill-rule: evenodd; stroke: rgb(0, 0, 0); stroke-width: 1px; stroke-linecap: butt; stroke-linejoin: miter; stroke-opacity: 1;"/>
  </g><line x1="150" y1="180" x2="180" y2="180" style="position: absolute;" stroke="black" stroke-width="2" id="line:cfccd3e2-c74e-da39-71a7-5603e1775ee7"/><line x1="150" y1="80" x2="150" y2="180" style="position: absolute;" stroke="black" stroke-width="2" id="line:90591694-e40e-fd56-4557-229e1a6f6d95"/><line x1="150" y1="80" x2="250" y2="80" style="position: absolute;" stroke="black" stroke-width="2" id="line:67e22a7a-733f-4c02-396e-d41c11f15391"/><circle cx="250" cy="80" r="3" style="position: absolute;" stroke="black" id="shape:a31a53a2-b334-2e7c-361c-ac87894796dc"/><line x1="170" y1="160" x2="180" y2="160" style="position: absolute;" stroke="black" stroke-width="2" id="line:d53ef570-436a-0b3d-0c65-50ac0134fe93"/><line x1="170" y1="160" x2="170" y2="210" style="position: absolute;" stroke="black" stroke-width="2" id="line:2f4166f0-d241-43d7-be2f-9731ec2f9441"/><line x1="170" y1="210" x2="260" y2="210" style="position: absolute;" stroke="black" stroke-width="2" id="line:227baafb-bb7a-a3db-6d74-e1dd9d860ef3"/><line x1="260" y1="170" x2="260" y2="210" style="position: absolute;" stroke="black" stroke-width="2" id="line:0bab6f6d-0d1a-db73-5767-9af92454fd3a"/><line x1="240" y1="170" x2="260" y2="170" style="position: absolute;" stroke="black" stroke-width="2" id="line:217e4a28-b793-a1f1-802b-e42e84d9590c"/><line x1="130" y1="150" x2="180" y2="150" style="position: absolute;" stroke="black" stroke-width="2" id="line:7c1a5117-4c68-5fc2-38e0-c4ae58524301"/><line x1="130" y1="150" x2="130" y2="240" style="position: absolute;" stroke="black" stroke-width="2" id="line:01ceed76-ebcb-15ea-5246-3c6c349c2613"/><line x1="130" y1="240" x2="290" y2="240" style="position: absolute;" stroke="black" stroke-width="2" id="line:b2c1d798-955c-8313-7341-9ff35ac92dc2"/><g id="Gnd" transform="matrix(1, 0, 0, 1, 280, 260)">
    <path d="M 10.648082,0.5 L 10.648082,11.468059" id="path3694" style="fill: none; fill-rule: evenodd; stroke: rgb(0, 0, 0); stroke-width: 1px; stroke-linecap: butt; stroke-linejoin: miter; stroke-opacity: 1;"/>
    <path d="M 0.50000006,11.834153 L 19.671275,11.834153" id="path3696" style="fill: none; fill-rule: evenodd; stroke: rgb(0, 0, 0); stroke-width: 1px; stroke-linecap: butt; stroke-linejoin: miter; stroke-opacity: 1;"/>
    <path d="M 2.6480823,14.5 L 17.732881,14.5" id="path3698" style="fill: none; fill-rule: evenodd; stroke: rgb(0, 0, 0); stroke-width: 1px; stroke-linecap: butt; stroke-linejoin: miter; stroke-opacity: 1;"/>
    <path d="M 5.802873,17.5 L 14.648082,17.5" id="path3700" style="fill: none; fill-rule: evenodd; stroke: rgb(0, 0, 0); stroke-width: 1px; stroke-linecap: butt; stroke-linejoin: miter; stroke-opacity: 1;"/>
  </g><line x1="290" y1="210" x2="290" y2="270" style="position: absolute;" stroke="black" stroke-width="2" id="line:0bb1f255-b4ed-dd23-0504-b1cd7fc7668c"/><circle cx="290" cy="240" r="3" style="position: absolute;" stroke="black" id="shape:d6515637-1462-94d5-fede-0442bdc666a6"/><line x1="290" y1="160" x2="290" y2="200" style="position: absolute;" stroke="black" stroke-width="2" id="line:e3d82e13-ecb7-8624-39b8-5cc6a3a54366"/><circle cx="290" cy="120" r="3" style="position: absolute;" stroke="black" id="shape:3b313e8c-02c8-f5d0-2122-68b2286e666d"/><line x1="270" y1="120" x2="290" y2="120" style="position: absolute;" stroke="black" stroke-width="2" id="line:57009a27-a1ef-bd28-cf7a-4e1d81b74d01"/><line x1="270" y1="120" x2="270" y2="160" style="position: absolute;" stroke="black" stroke-width="2" id="line:1b204140-acc1-6652-c105-2efbbe48842b"/><line x1="240" y1="160" x2="270" y2="160" style="position: absolute;" stroke="black" stroke-width="2" id="line:a4b0fe6e-7bf9-19ad-7656-d131bbc47c85"/><circle cx="260" cy="180" r="3" style="position: absolute;" stroke="black" id="shape:534058c3-e237-0b4b-5611-1be9352ca6da"/><line x1="260" y1="180" x2="290" y2="180" style="position: absolute;" stroke="black" stroke-width="2" id="line:159dcf67-b3db-f2af-5fa4-10a67832784c"/><circle cx="290" cy="180" r="3" style="position: absolute;" stroke="black" id="shape:d094c9c8-45d4-fe44-9355-d60e68c3f3e4"/><line x1="90" y1="170" x2="180" y2="170" style="position: absolute;" stroke="black" stroke-width="2" id="line:ace02077-4210-89d2-7bc7-8028aad0c271"/><text x="60" y="170" font-size="12">out</text><text x="310" y="90" font-size="12">r1</text><text x="310" y="150" font-size="12">r2</text><text x="310" y="200" font-size="12">c1</text><text x="120" y="50" font-size="12">basic astable</text><text x="190" y="132" font-size="12">555</text><text x="10" y="122" font-size="12">toff=.639*r2*c1</text><text x="10" y="110" font-size="12">ton=.639*(r1+r2)*c1</text><text x="40" y="194" font-size="12"/></svg>